<svg width="148" height="134" viewBox="0 0 148 134" fill="none" xmlns="http://www.w3.org/2000/svg">
<path d="M84.6323 54.8541C84.6323 58.7492 81.4747 61.9067 77.5796 61.9067C73.6845 61.9067 70.5269 58.7492 70.5269 54.8541C70.5269 50.959 73.6845 47.8014 77.5796 47.8014C81.4747 47.8014 84.6323 50.959 84.6323 54.8541Z" fill="#F7EFFF"/>
<path d="M108.141 54.8483C108.141 58.7434 104.984 61.901 101.089 61.901C97.1934 61.901 94.0358 58.7434 94.0358 54.8483C94.0358 50.9532 97.1934 47.7956 101.089 47.7956C104.984 47.7956 108.141 50.9532 108.141 54.8483Z" fill="#F7EFFF"/>
<path d="M131.65 54.8483C131.65 58.7434 128.493 61.901 124.597 61.901C120.702 61.901 117.545 58.7434 117.545 54.8483C117.545 50.9532 120.702 47.7956 124.597 47.7956C128.493 47.7956 131.65 50.9532 131.65 54.8483Z" fill="#F7EFFF"/>
<path d="M155.159 54.8483C155.159 58.7434 152.002 61.901 148.106 61.901C144.211 61.901 141.054 58.7434 141.054 54.8483C141.054 50.9532 144.211 47.7956 148.106 47.7956C152.002 47.7956 155.159 50.9532 155.159 54.8483Z" fill="#F7EFFF"/>
<path d="M37.6143 54.8483C37.6143 58.7434 34.4567 61.901 30.5616 61.901C26.6666 61.901 23.509 58.7434 23.509 54.8483C23.509 50.9532 26.6666 47.7956 30.5616 47.7956C34.4567 47.7956 37.6143 50.9532 37.6143 54.8483Z" fill="#F7EFFF"/>
<path d="M14.1054 54.8483C14.1054 58.7434 10.9478 61.901 7.05269 61.901C3.1576 61.901 0 58.7434 0 54.8483C0 50.9532 3.1576 47.7956 7.05269 47.7956C10.9478 47.7956 14.1054 50.9532 14.1054 54.8483Z" fill="#F7EFFF"/>
<path d="M61.1233 54.8483C61.1233 58.7434 57.9657 61.901 54.0706 61.901C50.1755 61.901 47.0179 58.7434 47.0179 54.8483C47.0179 50.9532 50.1755 47.7956 54.0706 47.7956C57.9657 47.7956 61.1233 50.9532 61.1233 54.8483Z" fill="#F7EFFF"/>
<path d="M84.6323 30.5674C84.6323 34.4625 81.4747 37.6201 77.5796 37.6201C73.6845 37.6201 70.5269 34.4625 70.5269 30.5674C70.5269 26.6723 73.6845 23.5147 77.5796 23.5147C81.4747 23.5147 84.6323 26.6723 84.6323 30.5674Z" fill="#F7EFFF"/>
<path d="M84.6323 7.05269C84.6323 10.9478 81.4747 14.1054 77.5796 14.1054C73.6845 14.1054 70.5269 10.9478 70.5269 7.05269C70.5269 3.1576 73.6845 0 77.5796 0C81.4747 0 84.6323 3.1576 84.6323 7.05269Z" fill="#F7EFFF"/>
<path d="M108.141 30.5617C108.141 34.4567 104.984 37.6143 101.089 37.6143C97.1934 37.6143 94.0358 34.4567 94.0358 30.5617C94.0358 26.6666 97.1934 23.509 101.089 23.509C104.984 23.509 108.141 26.6666 108.141 30.5617Z" fill="#F7EFFF"/>
<path d="M61.1233 30.5617C61.1233 34.4567 57.9657 37.6143 54.0706 37.6143C50.1755 37.6143 47.0179 34.4567 47.0179 30.5617C47.0179 26.6666 50.1755 23.509 54.0706 23.509C57.9657 23.509 61.1233 26.6666 61.1233 30.5617Z" fill="#F7EFFF"/>
<path d="M84.6323 78.3687C84.6323 82.2638 81.4747 85.4214 77.5796 85.4214C73.6845 85.4214 70.5269 82.2638 70.5269 78.3687C70.5269 74.4736 73.6845 71.316 77.5796 71.316C81.4747 71.316 84.6323 74.4736 84.6323 78.3687Z" fill="#F7EFFF"/>
<path d="M108.141 78.363C108.141 82.2581 104.984 85.4157 101.089 85.4157C97.1934 85.4157 94.0358 82.2581 94.0358 78.363C94.0358 74.4679 97.1934 71.3103 101.089 71.3103C104.984 71.3103 108.141 74.4679 108.141 78.363Z" fill="#F7EFFF"/>
<path d="M131.65 78.363C131.65 82.2581 128.493 85.4157 124.597 85.4157C120.702 85.4157 117.545 82.2581 117.545 78.363C117.545 74.4679 120.702 71.3103 124.597 71.3103C128.493 71.3103 131.65 74.4679 131.65 78.363Z" fill="#F7EFFF"/>
<path d="M37.6143 78.363C37.6143 82.2581 34.4567 85.4157 30.5616 85.4157C26.6666 85.4157 23.509 82.2581 23.509 78.363C23.509 74.4679 26.6666 71.3103 30.5616 71.3103C34.4567 71.3103 37.6143 74.4679 37.6143 78.363Z" fill="#F7EFFF"/>
<path d="M61.1233 78.363C61.1233 82.2581 57.9657 85.4157 54.0706 85.4157C50.1755 85.4157 47.0179 82.2581 47.0179 78.363C47.0179 74.4679 50.1755 71.3103 54.0706 71.3103C57.9657 71.3103 61.1233 74.4679 61.1233 78.363Z" fill="#F7EFFF"/>
<path d="M37.6143 102.655C37.6143 106.551 34.4567 109.708 30.5616 109.708C26.6666 109.708 23.509 106.551 23.509 102.655C23.509 98.7603 26.6666 95.6027 30.5616 95.6027C34.4567 95.6027 37.6143 98.7603 37.6143 102.655Z" fill="#F7EFFF"/>
<path d="M37.6143 126.948C37.6143 130.843 34.4567 134 30.5616 134C26.6666 134 23.509 130.843 23.509 126.948C23.509 123.053 26.6666 119.895 30.5616 119.895C34.4567 119.895 37.6143 123.053 37.6143 126.948Z" fill="#F7EFFF"/>
<path d="M131.65 126.948C131.65 130.843 128.493 134 124.597 134C120.702 134 117.545 130.843 117.545 126.948C117.545 123.053 120.702 119.895 124.597 119.895C128.493 119.895 131.65 123.053 131.65 126.948Z" fill="#F7EFFF"/>
<path d="M14.1054 126.948C14.1054 130.843 10.9478 134 7.05269 134C3.1576 134 0 130.843 0 126.948C0 123.053 3.1576 119.895 7.05269 119.895C10.9478 119.895 14.1054 123.053 14.1054 126.948Z" fill="#F7EFFF"/>
<path d="M155.159 126.948C155.159 130.843 152.002 134 148.106 134C144.211 134 141.054 130.843 141.054 126.948C141.054 123.053 144.211 119.895 148.106 119.895C152.002 119.895 155.159 123.053 155.159 126.948Z" fill="#F7EFFF"/>
<path d="M61.1233 102.655C61.1233 106.551 57.9657 109.708 54.0706 109.708C50.1755 109.708 47.0179 106.551 47.0179 102.655C47.0179 98.7603 50.1755 95.6027 54.0706 95.6027C57.9657 95.6027 61.1233 98.7603 61.1233 102.655Z" fill="#F7EFFF"/>
<path d="M108.141 102.655C108.141 106.551 104.984 109.708 101.089 109.708C97.1934 109.708 94.0358 106.551 94.0358 102.655C94.0358 98.7603 97.1934 95.6027 101.089 95.6027C104.984 95.6027 108.141 98.7603 108.141 102.655Z" fill="#F7EFFF"/>
<path d="M131.65 102.655C131.65 106.551 128.493 109.708 124.597 109.708C120.702 109.708 117.545 106.551 117.545 102.655C117.545 98.7603 120.702 95.6027 124.597 95.6027C128.493 95.6027 131.65 98.7603 131.65 102.655Z" fill="#F7EFFF"/>
</svg>
