<svg width="80" height="160" viewBox="0 0 80 160" fill="none" xmlns="http://www.w3.org/2000/svg">
<path d="M-4.62613 151.356C-4.62613 156 -8.39101 159.765 -13.0352 159.765C-17.6794 159.765 -21.4443 156 -21.4443 151.356C-21.4443 146.712 -17.6794 142.947 -13.0352 142.947C-8.39101 142.947 -4.62613 146.712 -4.62613 151.356Z" fill="#EDFBFF"/>
<path d="M-4.62613 122.399C-4.62613 127.043 -8.39101 130.808 -13.0352 130.808C-17.6794 130.808 -21.4443 127.043 -21.4443 122.399C-21.4443 117.754 -17.6794 113.99 -13.0352 113.99C-8.39101 113.99 -4.62613 117.754 -4.62613 122.399Z" fill="#EDFBFF"/>
<path d="M-4.62613 94.3615C-4.62613 99.0057 -8.39101 102.771 -13.0352 102.771C-17.6794 102.771 -21.4443 99.0057 -21.4443 94.3615C-21.4443 89.7173 -17.6794 85.9524 -13.0352 85.9524C-8.39101 85.9524 -4.62613 89.7173 -4.62613 94.3615Z" fill="#EDFBFF"/>
<path d="M-4.62613 65.4039C-4.62613 70.0481 -8.39101 73.813 -13.0352 73.813C-17.6794 73.813 -21.4443 70.0481 -21.4443 65.4039C-21.4443 60.7597 -17.6794 56.9948 -13.0352 56.9948C-8.39101 56.9948 -4.62613 60.7597 -4.62613 65.4039Z" fill="#EDFBFF"/>
<path d="M23.4041 122.392C23.4041 127.036 19.6393 130.801 14.995 130.801C10.3508 130.801 6.58596 127.036 6.58596 122.392C6.58596 117.747 10.3508 113.982 14.995 113.982C19.6393 113.982 23.4041 117.747 23.4041 122.392Z" fill="#EDFBFF"/>
<path d="M23.4041 93.434C23.4041 98.0782 19.6393 101.843 14.995 101.843C10.3508 101.843 6.58596 98.0782 6.58596 93.434C6.58596 88.7898 10.3508 85.0249 14.995 85.0249C19.6393 85.0249 23.4041 88.7898 23.4041 93.434Z" fill="#EDFBFF"/>
<path d="M23.4041 65.3971C23.4041 70.0414 19.6393 73.8062 14.995 73.8062C10.3508 73.8062 6.58596 70.0414 6.58596 65.3971C6.58596 60.7529 10.3508 56.9881 14.995 56.9881C19.6393 56.9881 23.4041 60.7529 23.4041 65.3971Z" fill="#EDFBFF"/>
<path d="M23.4041 36.4396C23.4041 41.0838 19.6393 44.8487 14.995 44.8487C10.3508 44.8487 6.58596 41.0838 6.58596 36.4396C6.58596 31.7953 10.3508 28.0305 14.995 28.0305C19.6393 28.0305 23.4041 31.7953 23.4041 36.4396Z" fill="#EDFBFF"/>
<path d="M51.4346 65.3971C51.4346 70.0414 47.6697 73.8062 43.0255 73.8062C38.3813 73.8062 34.6164 70.0414 34.6164 65.3971C34.6164 60.7529 38.3813 56.9881 43.0255 56.9881C47.6697 56.9881 51.4346 60.7529 51.4346 65.3971Z" fill="#EDFBFF"/>
<path d="M51.4346 93.434C51.4346 98.0782 47.6697 101.843 43.0255 101.843C38.3813 101.843 34.6164 98.0782 34.6164 93.434C34.6164 88.7898 38.3813 85.0249 43.0255 85.0249C47.6697 85.0249 51.4346 88.7898 51.4346 93.434Z" fill="#EDFBFF"/>
<path d="M51.4346 36.4396C51.4346 41.0838 47.6697 44.8487 43.0255 44.8487C38.3813 44.8487 34.6164 41.0838 34.6164 36.4396C34.6164 31.7953 38.3813 28.0305 43.0255 28.0305C47.6697 28.0305 51.4346 31.7953 51.4346 36.4396Z" fill="#EDFBFF"/>
<path d="M79.4648 65.3971C79.4648 70.0414 75.7 73.8062 71.0558 73.8062C66.4115 73.8062 62.6467 70.0414 62.6467 65.3971C62.6467 60.7529 66.4115 56.9881 71.0558 56.9881C75.7 56.9881 79.4648 60.7529 79.4648 65.3971Z" fill="#EDFBFF"/>
<path d="M79.4648 36.4396C79.4648 41.0838 75.7 44.8487 71.0558 44.8487C66.4115 44.8487 62.6467 41.0838 62.6467 36.4396C62.6467 31.7953 66.4115 28.0305 71.0558 28.0305C75.7 28.0305 79.4648 31.7953 79.4648 36.4396Z" fill="#EDFBFF"/>
<path d="M-60.6867 65.3971C-60.6867 70.0414 -64.4516 73.8062 -69.0958 73.8062C-73.74 73.8062 -77.5049 70.0414 -77.5049 65.3971C-77.5049 60.7529 -73.74 56.9881 -69.0958 56.9881C-64.4516 56.9881 -60.6867 60.7529 -60.6867 65.3971Z" fill="#EDFBFF"/>
<path d="M-60.6867 36.4396C-60.6867 41.0838 -64.4516 44.8487 -69.0958 44.8487C-73.74 44.8487 -77.5049 41.0838 -77.5049 36.4396C-77.5049 31.7953 -73.74 28.0305 -69.0958 28.0305C-64.4516 28.0305 -60.6867 31.7953 -60.6867 36.4396Z" fill="#EDFBFF"/>
<path d="M-60.6867 8.40909C-60.6867 13.0533 -64.4516 16.8182 -69.0958 16.8182C-73.74 16.8182 -77.5049 13.0533 -77.5049 8.40909C-77.5049 3.76488 -73.74 0 -69.0958 0C-64.4516 0 -60.6867 3.76488 -60.6867 8.40909Z" fill="#EDFBFF"/>
<path d="M51.4346 8.40909C51.4346 13.0533 47.6697 16.8182 43.0255 16.8182C38.3813 16.8182 34.6164 13.0533 34.6164 8.40909C34.6164 3.76488 38.3813 0 43.0255 0C47.6697 0 51.4346 3.76488 51.4346 8.40909Z" fill="#EDFBFF"/>
<path d="M-88.717 65.3971C-88.717 70.0414 -92.4819 73.8062 -97.1261 73.8062C-101.77 73.8062 -105.535 70.0414 -105.535 65.3971C-105.535 60.7529 -101.77 56.9881 -97.1261 56.9881C-92.4819 56.9881 -88.717 60.7529 -88.717 65.3971Z" fill="#EDFBFF"/>
<path d="M-88.717 36.4396C-88.717 41.0838 -92.4819 44.8487 -97.1261 44.8487C-101.77 44.8487 -105.535 41.0838 -105.535 36.4396C-105.535 31.7953 -101.77 28.0305 -97.1261 28.0305C-92.4819 28.0305 -88.717 31.7953 -88.717 36.4396Z" fill="#EDFBFF"/>
<path d="M-32.6564 122.392C-32.6564 127.036 -36.4213 130.801 -41.0655 130.801C-45.7097 130.801 -49.4746 127.036 -49.4746 122.392C-49.4746 117.747 -45.7097 113.982 -41.0655 113.982C-36.4213 113.982 -32.6564 117.747 -32.6564 122.392Z" fill="#EDFBFF"/>
<path d="M-32.6564 93.434C-32.6564 98.0782 -36.4213 101.843 -41.0655 101.843C-45.7097 101.843 -49.4746 98.0782 -49.4746 93.434C-49.4746 88.7898 -45.7097 85.0249 -41.0655 85.0249C-36.4213 85.0249 -32.6564 88.7898 -32.6564 93.434Z" fill="#EDFBFF"/>
<path d="M-60.6867 93.434C-60.6867 98.0782 -64.4516 101.843 -69.0958 101.843C-73.74 101.843 -77.5049 98.0782 -77.5049 93.434C-77.5049 88.7898 -73.74 85.0249 -69.0958 85.0249C-64.4516 85.0249 -60.6867 88.7898 -60.6867 93.434Z" fill="#EDFBFF"/>
<path d="M-32.6564 65.3971C-32.6564 70.0414 -36.4213 73.8062 -41.0655 73.8062C-45.7097 73.8062 -49.4746 70.0414 -49.4746 65.3971C-49.4746 60.7529 -45.7097 56.9881 -41.0655 56.9881C-36.4213 56.9881 -32.6564 60.7529 -32.6564 65.3971Z" fill="#EDFBFF"/>
<path d="M-32.6564 36.4396C-32.6564 41.0838 -36.4213 44.8487 -41.0655 44.8487C-45.7097 44.8487 -49.4746 41.0838 -49.4746 36.4396C-49.4746 31.7953 -45.7097 28.0305 -41.0655 28.0305C-36.4213 28.0305 -32.6564 31.7953 -32.6564 36.4396Z" fill="#EDFBFF"/>
</svg>
