<svg width="189" height="217" viewBox="0 0 189 217" fill="none" xmlns="http://www.w3.org/2000/svg">
<path d="M137.059 205.578C137.059 211.886 131.945 217 125.637 217C119.329 217 114.216 211.886 114.216 205.578C114.216 199.27 119.329 194.157 125.637 194.157C131.945 194.157 137.059 199.27 137.059 205.578Z" fill="#FFFBE5"/>
<path d="M137.059 166.247C137.059 172.555 131.945 177.669 125.637 177.669C119.329 177.669 114.216 172.555 114.216 166.247C114.216 159.939 119.329 154.826 125.637 154.826C131.945 154.826 137.059 159.939 137.059 166.247Z" fill="#FFFBE5"/>
<path d="M137.059 128.166C137.059 134.474 131.945 139.587 125.637 139.587C119.329 139.587 114.216 134.474 114.216 128.166C114.216 121.858 119.329 116.744 125.637 116.744C131.945 116.744 137.059 121.858 137.059 128.166Z" fill="#FFFBE5"/>
<path d="M137.059 88.8344C137.059 95.1423 131.945 100.256 125.637 100.256C119.329 100.256 114.216 95.1423 114.216 88.8344C114.216 82.5264 119.329 77.4128 125.637 77.4128C131.945 77.4128 137.059 82.5264 137.059 88.8344Z" fill="#FFFBE5"/>
<path d="M175.131 166.238C175.131 172.546 170.017 177.659 163.709 177.659C157.401 177.659 152.288 172.546 152.288 166.238C152.288 159.93 157.401 154.816 163.709 154.816C170.017 154.816 175.131 159.93 175.131 166.238Z" fill="#FFFBE5"/>
<path d="M175.131 126.906C175.131 133.214 170.017 138.328 163.709 138.328C157.401 138.328 152.288 133.214 152.288 126.906C152.288 120.598 157.401 115.484 163.709 115.484C170.017 115.484 175.131 120.598 175.131 126.906Z" fill="#FFFBE5"/>
<path d="M175.131 88.8253C175.131 95.1332 170.017 100.247 163.709 100.247C157.401 100.247 152.288 95.1332 152.288 88.8253C152.288 82.5173 157.401 77.4037 163.709 77.4037C170.017 77.4037 175.131 82.5173 175.131 88.8253Z" fill="#FFFBE5"/>
<path d="M175.131 49.4938C175.131 55.8018 170.017 60.9154 163.709 60.9154C157.401 60.9154 152.288 55.8018 152.288 49.4938C152.288 43.1859 157.401 38.0722 163.709 38.0722C170.017 38.0722 175.131 43.1859 175.131 49.4938Z" fill="#FFFBE5"/>
<path d="M213.203 88.8253C213.203 95.1332 208.089 100.247 201.781 100.247C195.473 100.247 190.36 95.1332 190.36 88.8253C190.36 82.5173 195.473 77.4037 201.781 77.4037C208.089 77.4037 213.203 82.5173 213.203 88.8253Z" fill="#FFFBE5"/>
<path d="M213.203 126.906C213.203 133.214 208.089 138.328 201.781 138.328C195.473 138.328 190.36 133.214 190.36 126.906C190.36 120.598 195.473 115.484 201.781 115.484C208.089 115.484 213.203 120.598 213.203 126.906Z" fill="#FFFBE5"/>
<path d="M213.203 49.4938C213.203 55.8018 208.089 60.9154 201.781 60.9154C195.473 60.9154 190.36 55.8018 190.36 49.4938C190.36 43.1859 195.473 38.0722 201.781 38.0722C208.089 38.0722 213.203 43.1859 213.203 49.4938Z" fill="#FFFBE5"/>
<path d="M251.275 88.8253C251.275 95.1332 246.161 100.247 239.853 100.247C233.545 100.247 228.432 95.1332 228.432 88.8253C228.432 82.5173 233.545 77.4037 239.853 77.4037C246.161 77.4037 251.275 82.5173 251.275 88.8253Z" fill="#FFFBE5"/>
<path d="M251.275 49.4938C251.275 55.8018 246.161 60.9154 239.853 60.9154C233.545 60.9154 228.432 55.8018 228.432 49.4938C228.432 43.1859 233.545 38.0722 239.853 38.0722C246.161 38.0722 251.275 43.1859 251.275 49.4938Z" fill="#FFFBE5"/>
<path d="M60.9151 88.8253C60.9151 95.1332 55.8015 100.247 49.4935 100.247C43.1855 100.247 38.0719 95.1332 38.0719 88.8253C38.0719 82.5173 43.1855 77.4037 49.4935 77.4037C55.8015 77.4037 60.9151 82.5173 60.9151 88.8253Z" fill="#FFFBE5"/>
<path d="M60.9151 49.4938C60.9151 55.8018 55.8015 60.9154 49.4935 60.9154C43.1855 60.9154 38.0719 55.8018 38.0719 49.4938C38.0719 43.1859 43.1855 38.0722 49.4935 38.0722C55.8015 38.0722 60.9151 43.1859 60.9151 49.4938Z" fill="#FFFBE5"/>
<path d="M60.9151 11.4216C60.9151 17.7296 55.8015 22.8432 49.4935 22.8432C43.1855 22.8432 38.0719 17.7296 38.0719 11.4216C38.0719 5.11362 43.1855 0 49.4935 0C55.8015 0 60.9151 5.11362 60.9151 11.4216Z" fill="#FFFBE5"/>
<path d="M213.203 11.4216C213.203 17.7296 208.089 22.8432 201.781 22.8432C195.473 22.8432 190.36 17.7296 190.36 11.4216C190.36 5.11362 195.473 0 201.781 0C208.089 0 213.203 5.11362 213.203 11.4216Z" fill="#FFFBE5"/>
<path d="M22.8432 88.8253C22.8432 95.1332 17.7296 100.247 11.4216 100.247C5.11362 100.247 0 95.1332 0 88.8253C0 82.5173 5.11362 77.4037 11.4216 77.4037C17.7296 77.4037 22.8432 82.5173 22.8432 88.8253Z" fill="#FFFBE5"/>
<path d="M22.8432 49.4938C22.8432 55.8018 17.7296 60.9154 11.4216 60.9154C5.11362 60.9154 0 55.8018 0 49.4938C0 43.1859 5.11362 38.0722 11.4216 38.0722C17.7296 38.0722 22.8432 43.1859 22.8432 49.4938Z" fill="#FFFBE5"/>
<path d="M98.987 166.238C98.987 172.546 93.8734 177.659 87.5654 177.659C81.2575 177.659 76.1438 172.546 76.1438 166.238C76.1438 159.93 81.2575 154.816 87.5654 154.816C93.8734 154.816 98.987 159.93 98.987 166.238Z" fill="#FFFBE5"/>
<path d="M98.987 126.906C98.987 133.214 93.8734 138.328 87.5654 138.328C81.2575 138.328 76.1438 133.214 76.1438 126.906C76.1438 120.598 81.2575 115.484 87.5654 115.484C93.8734 115.484 98.987 120.598 98.987 126.906Z" fill="#FFFBE5"/>
<path d="M60.9151 126.906C60.9151 133.214 55.8015 138.328 49.4935 138.328C43.1855 138.328 38.0719 133.214 38.0719 126.906C38.0719 120.598 43.1855 115.484 49.4935 115.484C55.8015 115.484 60.9151 120.598 60.9151 126.906Z" fill="#FFFBE5"/>
<path d="M98.987 88.8253C98.987 95.1332 93.8734 100.247 87.5654 100.247C81.2575 100.247 76.1438 95.1332 76.1438 88.8253C76.1438 82.5173 81.2575 77.4037 87.5654 77.4037C93.8734 77.4037 98.987 82.5173 98.987 88.8253Z" fill="#FFFBE5"/>
<path d="M98.987 49.4938C98.987 55.8018 93.8734 60.9154 87.5654 60.9154C81.2575 60.9154 76.1438 55.8018 76.1438 49.4938C76.1438 43.1859 81.2575 38.0722 87.5654 38.0722C93.8734 38.0722 98.987 43.1859 98.987 49.4938Z" fill="#FFFBE5"/>
</svg>
