<svg width="31" height="26" viewBox="0 0 31 26" fill="none" xmlns="http://www.w3.org/2000/svg">
<path d="M16.4218 24.6315C16.4218 25.3873 15.8091 26 15.0533 26C14.2975 26 13.6849 25.3873 13.6849 24.6315C13.6849 23.8757 14.2975 23.263 15.0533 23.263C15.8091 23.263 16.4218 23.8757 16.4218 24.6315Z" fill="black"/>
<path d="M16.4218 19.919C16.4218 20.6748 15.8091 21.2875 15.0533 21.2875C14.2975 21.2875 13.6849 20.6748 13.6849 19.919C13.6849 19.1632 14.2975 18.5505 15.0533 18.5505C15.8091 18.5505 16.4218 19.1632 16.4218 19.919Z" fill="black"/>
<path d="M16.4218 15.3563C16.4218 16.1121 15.8091 16.7247 15.0533 16.7247C14.2975 16.7247 13.6849 16.1121 13.6849 15.3563C13.6849 14.6005 14.2975 13.9878 15.0533 13.9878C15.8091 13.9878 16.4218 14.6005 16.4218 15.3563Z" fill="black"/>
<path d="M16.4218 10.6437C16.4218 11.3995 15.8091 12.0122 15.0533 12.0122C14.2975 12.0122 13.6849 11.3995 13.6849 10.6437C13.6849 9.88795 14.2975 9.27525 15.0533 9.27525C15.8091 9.27525 16.4218 9.88795 16.4218 10.6437Z" fill="black"/>
<path d="M20.9834 19.9179C20.9834 20.6737 20.3708 21.2864 19.615 21.2864C18.8592 21.2864 18.2465 20.6737 18.2465 19.9179C18.2465 19.1621 18.8592 18.5494 19.615 18.5494C20.3708 18.5494 20.9834 19.1621 20.9834 19.9179Z" fill="black"/>
<path d="M20.9834 15.2054C20.9834 15.9612 20.3708 16.5738 19.615 16.5738C18.8592 16.5738 18.2465 15.9612 18.2465 15.2054C18.2465 14.4496 18.8592 13.8369 19.615 13.8369C20.3708 13.8369 20.9834 14.4496 20.9834 15.2054Z" fill="black"/>
<path d="M20.9834 10.6426C20.9834 11.3984 20.3708 12.0111 19.615 12.0111C18.8592 12.0111 18.2465 11.3984 18.2465 10.6426C18.2465 9.88683 18.8592 9.27414 19.615 9.27414C20.3708 9.27414 20.9834 9.88683 20.9834 10.6426Z" fill="black"/>
<path d="M20.9834 5.9301C20.9834 6.6859 20.3708 7.29859 19.615 7.29859C18.8592 7.29859 18.2465 6.6859 18.2465 5.9301C18.2465 5.17431 18.8592 4.56162 19.615 4.56162C20.3708 4.56162 20.9834 5.17431 20.9834 5.9301Z" fill="black"/>
<path d="M25.5451 10.6426C25.5451 11.3984 24.9324 12.0111 24.1766 12.0111C23.4208 12.0111 22.8081 11.3984 22.8081 10.6426C22.8081 9.88683 23.4208 9.27414 24.1766 9.27414C24.9324 9.27414 25.5451 9.88683 25.5451 10.6426Z" fill="black"/>
<path d="M25.5451 15.2054C25.5451 15.9612 24.9324 16.5738 24.1766 16.5738C23.4208 16.5738 22.8081 15.9612 22.8081 15.2054C22.8081 14.4496 23.4208 13.8369 24.1766 13.8369C24.9324 13.8369 25.5451 14.4496 25.5451 15.2054Z" fill="black"/>
<path d="M25.5451 5.9301C25.5451 6.6859 24.9324 7.29859 24.1766 7.29859C23.4208 7.29859 22.8081 6.6859 22.8081 5.9301C22.8081 5.17431 23.4208 4.56162 24.1766 4.56162C24.9324 4.56162 25.5451 5.17431 25.5451 5.9301Z" fill="black"/>
<path d="M30.1067 10.6426C30.1067 11.3984 29.494 12.0111 28.7382 12.0111C27.9824 12.0111 27.3697 11.3984 27.3697 10.6426C27.3697 9.88683 27.9824 9.27414 28.7382 9.27414C29.494 9.27414 30.1067 9.88683 30.1067 10.6426Z" fill="black"/>
<path d="M30.1067 5.9301C30.1067 6.6859 29.494 7.29859 28.7382 7.29859C27.9824 7.29859 27.3697 6.6859 27.3697 5.9301C27.3697 5.17431 27.9824 4.56162 28.7382 4.56162C29.494 4.56162 30.1067 5.17431 30.1067 5.9301Z" fill="black"/>
<path d="M7.29859 10.6426C7.29859 11.3984 6.6859 12.0111 5.9301 12.0111C5.17431 12.0111 4.56162 11.3984 4.56162 10.6426C4.56162 9.88683 5.17431 9.27414 5.9301 9.27414C6.6859 9.27414 7.29859 9.88683 7.29859 10.6426Z" fill="black"/>
<path d="M7.29859 5.9301C7.29859 6.6859 6.6859 7.29859 5.9301 7.29859C5.17431 7.29859 4.56162 6.6859 4.56162 5.9301C4.56162 5.17431 5.17431 4.56162 5.9301 4.56162C6.6859 4.56162 7.29859 5.17431 7.29859 5.9301Z" fill="black"/>
<path d="M7.29859 1.36849C7.29859 2.12428 6.6859 2.73697 5.9301 2.73697C5.17431 2.73697 4.56162 2.12428 4.56162 1.36849C4.56162 0.612692 5.17431 0 5.9301 0C6.6859 0 7.29859 0.612692 7.29859 1.36849Z" fill="black"/>
<path d="M25.5451 1.36849C25.5451 2.12428 24.9324 2.73697 24.1766 2.73697C23.4208 2.73697 22.8081 2.12428 22.8081 1.36849C22.8081 0.612692 23.4208 0 24.1766 0C24.9324 0 25.5451 0.612692 25.5451 1.36849Z" fill="black"/>
<path d="M2.73697 10.6426C2.73697 11.3984 2.12428 12.0111 1.36849 12.0111C0.612692 12.0111 0 11.3984 0 10.6426C0 9.88683 0.612692 9.27414 1.36849 9.27414C2.12428 9.27414 2.73697 9.88683 2.73697 10.6426Z" fill="black"/>
<path d="M2.73697 5.9301C2.73697 6.6859 2.12428 7.29859 1.36849 7.29859C0.612692 7.29859 0 6.6859 0 5.9301C0 5.17431 0.612692 4.56162 1.36849 4.56162C2.12428 4.56162 2.73697 5.17431 2.73697 5.9301Z" fill="black"/>
<path d="M11.8602 19.9179C11.8602 20.6737 11.2475 21.2864 10.4917 21.2864C9.73593 21.2864 9.12324 20.6737 9.12324 19.9179C9.12324 19.1621 9.73593 18.5494 10.4917 18.5494C11.2475 18.5494 11.8602 19.1621 11.8602 19.9179Z" fill="black"/>
<path d="M11.8602 15.2054C11.8602 15.9612 11.2475 16.5738 10.4917 16.5738C9.73593 16.5738 9.12324 15.9612 9.12324 15.2054C9.12324 14.4496 9.73593 13.8369 10.4917 13.8369C11.2475 13.8369 11.8602 14.4496 11.8602 15.2054Z" fill="black"/>
<path d="M7.29859 15.2054C7.29859 15.9612 6.6859 16.5738 5.9301 16.5738C5.17431 16.5738 4.56162 15.9612 4.56162 15.2054C4.56162 14.4496 5.17431 13.8369 5.9301 13.8369C6.6859 13.8369 7.29859 14.4496 7.29859 15.2054Z" fill="black"/>
<path d="M11.8602 10.6426C11.8602 11.3984 11.2475 12.0111 10.4917 12.0111C9.73593 12.0111 9.12324 11.3984 9.12324 10.6426C9.12324 9.88683 9.73593 9.27414 10.4917 9.27414C11.2475 9.27414 11.8602 9.88683 11.8602 10.6426Z" fill="black"/>
<path d="M11.8602 5.9301C11.8602 6.6859 11.2475 7.29859 10.4917 7.29859C9.73593 7.29859 9.12324 6.6859 9.12324 5.9301C9.12324 5.17431 9.73593 4.56162 10.4917 4.56162C11.2475 4.56162 11.8602 5.17431 11.8602 5.9301Z" fill="black"/>
</svg>
