<svg width="36" height="37" viewBox="0 0 36 37" fill="none" xmlns="http://www.w3.org/2000/svg">
<g filter="url(#filter0_i_103_119)">
<path d="M19.1376 26.6584C19.1376 27.3522 18.5788 27.9146 17.8895 27.9146C17.2002 27.9146 16.6414 27.3522 16.6414 26.6584C16.6414 25.9646 17.2002 25.4022 17.8895 25.4022C18.5788 25.4022 19.1376 25.9646 19.1376 26.6584Z" fill="white"/>
<path d="M19.1376 22.4702C19.1376 23.1639 18.5788 23.7263 17.8895 23.7263C17.2002 23.7263 16.6414 23.1639 16.6414 22.4702C16.6414 21.7764 17.2002 21.214 17.8895 21.214C18.5788 21.214 19.1376 21.7764 19.1376 22.4702Z" fill="white"/>
<path d="M19.1376 18.1445C19.1376 18.8382 18.5788 19.4006 17.8895 19.4006C17.2002 19.4006 16.6414 18.8382 16.6414 18.1445C16.6414 17.4507 17.2002 16.8883 17.8895 16.8883C18.5788 16.8883 19.1376 17.4507 19.1376 18.1445Z" fill="white"/>
<path d="M19.1376 13.8177C19.1376 14.5115 18.5788 15.0739 17.8895 15.0739C17.2002 15.0739 16.6414 14.5115 16.6414 13.8177C16.6414 13.124 17.2002 12.5616 17.8895 12.5616C18.5788 12.5616 19.1376 13.124 19.1376 13.8177Z" fill="white"/>
<path d="M31.6187 30.9851C31.6187 31.6789 31.0599 32.2413 30.3706 32.2413C29.6812 32.2413 29.1224 31.6789 29.1224 30.9851C29.1224 30.2914 29.6812 29.729 30.3706 29.729C31.0599 29.729 31.6187 30.2914 31.6187 30.9851Z" fill="white"/>
<path d="M31.6187 26.6574C31.6187 27.3511 31.0599 27.9135 30.3706 27.9135C29.6812 27.9135 29.1224 27.3511 29.1224 26.6574C29.1224 25.9636 29.6812 25.4012 30.3706 25.4012C31.0599 25.4012 31.6187 25.9636 31.6187 26.6574Z" fill="white"/>
<path d="M23.298 13.8177C23.298 14.5115 22.7392 15.0739 22.0499 15.0739C21.3605 15.0739 20.8018 14.5115 20.8018 13.8177C20.8018 13.124 21.3605 12.5616 22.0499 12.5616C22.7392 12.5616 23.298 13.124 23.298 13.8177Z" fill="white"/>
<path d="M31.6187 22.3317C31.6187 23.0254 31.0599 23.5878 30.3706 23.5878C29.6812 23.5878 29.1224 23.0254 29.1224 22.3317C29.1224 21.6379 29.6812 21.0755 30.3706 21.0755C31.0599 21.0755 31.6187 21.6379 31.6187 22.3317Z" fill="white"/>
<path d="M31.6187 18.1434C31.6187 18.8372 31.0599 19.3996 30.3706 19.3996C29.6812 19.3996 29.1224 18.8372 29.1224 18.1434C29.1224 17.4497 29.6812 16.8873 30.3706 16.8873C31.0599 16.8873 31.6187 17.4497 31.6187 18.1434Z" fill="white"/>
<path d="M35.779 18.1434C35.779 18.8372 35.2202 19.3996 34.5309 19.3996C33.8416 19.3996 33.2828 18.8372 33.2828 18.1434C33.2828 17.4497 33.8416 16.8873 34.5309 16.8873C35.2202 16.8873 35.779 17.4497 35.779 18.1434Z" fill="white"/>
<path d="M31.6187 13.8177C31.6187 14.5115 31.0599 15.0739 30.3706 15.0739C29.6812 15.0739 29.1224 14.5115 29.1224 13.8177C29.1224 13.124 29.6812 12.5616 30.3706 12.5616C31.0599 12.5616 31.6187 13.124 31.6187 13.8177Z" fill="white"/>
<path d="M10.8169 9.63054C10.8169 10.3243 10.2581 10.8867 9.5688 10.8867C8.8795 10.8867 8.3207 10.3243 8.3207 9.63054C8.3207 8.93679 8.8795 8.37439 9.5688 8.37439C10.2581 8.37439 10.8169 8.93679 10.8169 9.63054Z" fill="white"/>
<path d="M27.4583 9.63054C27.4583 10.3243 26.8995 10.8867 26.2102 10.8867C25.5209 10.8867 24.9621 10.3243 24.9621 9.63054C24.9621 8.93679 25.5209 8.37439 26.2102 8.37439C26.8995 8.37439 27.4583 8.93679 27.4583 9.63054Z" fill="white"/>
<path d="M6.65656 18.1434C6.65656 18.8372 6.09776 19.3996 5.40845 19.3996C4.71915 19.3996 4.16035 18.8372 4.16035 18.1434C4.16035 17.4497 4.71915 16.8873 5.40845 16.8873C6.09776 16.8873 6.65656 17.4497 6.65656 18.1434Z" fill="white"/>
<path d="M2.49621 18.1434C2.49621 18.8372 1.93741 19.3996 1.2481 19.3996C0.558795 19.3996 -1.75455e-07 18.8372 -1.68994e-07 18.1434C-1.62532e-07 17.4497 0.558795 16.8873 1.2481 16.8873C1.93741 16.8873 2.49621 17.4497 2.49621 18.1434Z" fill="white"/>
<path d="M6.65656 13.8177C6.65656 14.5115 6.09776 15.0739 5.40845 15.0739C4.71915 15.0739 4.16035 14.5115 4.16035 13.8177C4.16035 13.124 4.71915 12.5616 5.40845 12.5616C6.09776 12.5616 6.65656 13.124 6.65656 13.8177Z" fill="white"/>
<path d="M14.9773 26.6574C14.9773 27.3511 14.4185 27.9135 13.7292 27.9135C13.0398 27.9135 12.481 27.3511 12.481 26.6574C12.481 25.9636 13.0398 25.4012 13.7292 25.4012C14.4185 25.4012 14.9773 25.9636 14.9773 26.6574Z" fill="white"/>
<path d="M6.65656 26.6574C6.65656 27.3511 6.09776 27.9135 5.40845 27.9135C4.71915 27.9135 4.16035 27.3511 4.16035 26.6574C4.16035 25.9636 4.71915 25.4012 5.40845 25.4012C6.09776 25.4012 6.65656 25.9636 6.65656 26.6574Z" fill="white"/>
<path d="M6.65656 30.9851C6.65656 31.6789 6.09776 32.2413 5.40845 32.2413C4.71915 32.2413 4.16035 31.6789 4.16035 30.9851C4.16035 30.2914 4.71915 29.729 5.40845 29.729C6.09776 29.729 6.65656 30.2914 6.65656 30.9851Z" fill="white"/>
<path d="M19.1376 35.1724C19.1376 35.8661 18.5788 36.4285 17.8895 36.4285C17.2002 36.4285 16.6414 35.8661 16.6414 35.1724C16.6414 34.4786 17.2002 33.9162 17.8895 33.9162C18.5788 33.9162 19.1376 34.4786 19.1376 35.1724Z" fill="white"/>
<path d="M14.9773 35.1724C14.9773 35.8661 14.4185 36.4285 13.7292 36.4285C13.0398 36.4285 12.481 35.8661 12.481 35.1724C12.481 34.4786 13.0398 33.9162 13.7292 33.9162C14.4185 33.9162 14.9773 34.4786 14.9773 35.1724Z" fill="white"/>
<path d="M23.298 35.1734C23.298 35.8671 22.7392 36.4295 22.0499 36.4295C21.3605 36.4295 20.8017 35.8671 20.8017 35.1734C20.8017 34.4796 21.3605 33.9172 22.0499 33.9172C22.7392 33.9172 23.298 34.4796 23.298 35.1734Z" fill="white"/>
<path d="M27.4583 35.1734C27.4583 35.8671 26.8995 36.4295 26.2102 36.4295C25.5209 36.4295 24.9621 35.8671 24.9621 35.1734C24.9621 34.4796 25.5209 33.9172 26.2102 33.9172C26.8995 33.9172 27.4583 34.4796 27.4583 35.1734Z" fill="white"/>
<path d="M10.8169 35.1734C10.8169 35.8671 10.2581 36.4295 9.5688 36.4295C8.8795 36.4295 8.3207 35.8671 8.3207 35.1734C8.3207 34.4796 8.8795 33.9172 9.5688 33.9172C10.2581 33.9172 10.8169 34.4796 10.8169 35.1734Z" fill="white"/>
<path d="M14.9773 22.3317C14.9773 23.0254 14.4185 23.5878 13.7292 23.5878C13.0398 23.5878 12.481 23.0254 12.481 22.3317C12.481 21.6379 13.0398 21.0755 13.7292 21.0755C14.4185 21.0755 14.9773 21.6379 14.9773 22.3317Z" fill="white"/>
<path d="M6.65656 22.3317C6.65656 23.0254 6.09776 23.5878 5.40845 23.5878C4.71915 23.5878 4.16035 23.0254 4.16035 22.3317C4.16035 21.6379 4.71915 21.0755 5.40845 21.0755C6.09776 21.0755 6.65656 21.6379 6.65656 22.3317Z" fill="white"/>
<path d="M19.1376 1.25616C19.1376 1.94991 18.5788 2.51232 17.8895 2.51232C17.2002 2.51232 16.6414 1.94991 16.6414 1.25616C16.6414 0.562401 17.2002 1.60208e-07 17.8895 1.66628e-07C18.5788 1.73049e-07 19.1376 0.562401 19.1376 1.25616Z" fill="white"/>
<path d="M23.298 5.44335C23.298 6.13711 22.7392 6.69951 22.0499 6.69951C21.3605 6.69951 20.8018 6.13711 20.8018 5.44335C20.8018 4.74959 21.3605 4.18719 22.0499 4.18719C22.7392 4.18719 23.298 4.74959 23.298 5.44335Z" fill="white"/>
<path d="M14.9773 5.44335C14.9773 6.13711 14.4185 6.69951 13.7292 6.69951C13.0398 6.69951 12.481 6.13711 12.481 5.44335C12.481 4.74959 13.0398 4.18719 13.7292 4.18719C14.4185 4.18719 14.9773 4.74959 14.9773 5.44335Z" fill="white"/>
</g>
<defs>
<filter id="filter0_i_103_119" x="0" y="0" width="35.779" height="36.9296" filterUnits="userSpaceOnUse" color-interpolation-filters="sRGB">
<feFlood flood-opacity="0" result="BackgroundImageFix"/>
<feBlend mode="normal" in="SourceGraphic" in2="BackgroundImageFix" result="shape"/>
<feColorMatrix in="SourceAlpha" type="matrix" values="0 0 0 0 0 0 0 0 0 0 0 0 0 0 0 0 0 0 127 0" result="hardAlpha"/>
<feOffset dy="0.5"/>
<feGaussianBlur stdDeviation="0.55"/>
<feComposite in2="hardAlpha" operator="arithmetic" k2="-1" k3="1"/>
<feColorMatrix type="matrix" values="0 0 0 0 0 0 0 0 0 0 0 0 0 0 0 0 0 0 0.5 0"/>
<feBlend mode="normal" in2="shape" result="effect1_innerShadow_103_119"/>
</filter>
</defs>
</svg>
