<svg width="30" height="22" viewBox="0 0 30 22" fill="none" xmlns="http://www.w3.org/2000/svg">
<g filter="url(#filter0_i_103_124)">
<path d="M14.224 1.29309C14.224 2.00724 13.6451 2.58618 12.9309 2.58618C12.2168 2.58618 11.6378 2.00724 11.6378 1.29309C11.6378 0.578936 12.2168 0 12.9309 0C13.6451 0 14.224 0.578936 14.224 1.29309Z" fill="white"/>
<path d="M18.1033 1.29309C18.1033 2.00724 17.5243 2.58618 16.8102 2.58618C16.096 2.58618 15.5171 2.00724 15.5171 1.29309C15.5171 0.578936 16.096 0 16.8102 0C17.5243 0 18.1033 0.578936 18.1033 1.29309Z" fill="white"/>
<path d="M6.46545 1.29309C6.46545 2.00724 5.88652 2.58618 5.17236 2.58618C4.45821 2.58618 3.87927 2.00724 3.87927 1.29309C3.87927 0.578936 4.45821 0 5.17236 0C5.88652 0 6.46545 0.578936 6.46545 1.29309Z" fill="white"/>
<path d="M2.58618 1.29309C2.58618 2.00724 2.00724 2.58618 1.29309 2.58618C0.578936 2.58618 0 2.00724 0 1.29309C0 0.578936 0.578936 0 1.29309 0C2.00724 0 2.58618 0.578936 2.58618 1.29309Z" fill="white"/>
<path d="M10.3447 1.29309C10.3447 2.00724 9.76579 2.58618 9.05163 2.58618C8.33748 2.58618 7.75854 2.00724 7.75854 1.29309C7.75854 0.578936 8.33748 0 9.05163 0C9.76579 0 10.3447 0.578936 10.3447 1.29309Z" fill="white"/>
<path d="M14.224 20.6894C14.224 21.4036 13.6451 21.9825 12.9309 21.9825C12.2168 21.9825 11.6378 21.4036 11.6378 20.6894C11.6378 19.9753 12.2168 19.3964 12.9309 19.3964C13.6451 19.3964 14.224 19.9753 14.224 20.6894Z" fill="white"/>
<path d="M18.1033 20.6894C18.1033 21.4036 17.5243 21.9825 16.8102 21.9825C16.096 21.9825 15.5171 21.4036 15.5171 20.6894C15.5171 19.9753 16.096 19.3964 16.8102 19.3964C17.5243 19.3964 18.1033 19.9753 18.1033 20.6894Z" fill="white"/>
<path d="M6.46545 20.6894C6.46545 21.4036 5.88652 21.9825 5.17236 21.9825C4.45821 21.9825 3.87927 21.4036 3.87927 20.6894C3.87927 19.9753 4.45821 19.3964 5.17236 19.3964C5.88652 19.3964 6.46545 19.9753 6.46545 20.6894Z" fill="white"/>
<path d="M2.58618 20.6894C2.58618 21.4036 2.00724 21.9825 1.29309 21.9825C0.578936 21.9825 0 21.4036 0 20.6894C0 19.9753 0.578936 19.3964 1.29309 19.3964C2.00724 19.3964 2.58618 19.9753 2.58618 20.6894Z" fill="white"/>
<path d="M10.3447 20.6894C10.3447 21.4036 9.76579 21.9825 9.05163 21.9825C8.33748 21.9825 7.75854 21.4036 7.75854 20.6894C7.75854 19.9753 8.33748 19.3964 9.05163 19.3964C9.76579 19.3964 10.3447 19.9753 10.3447 20.6894Z" fill="white"/>
<path d="M14.224 10.9913C14.224 11.7054 13.6451 12.2844 12.9309 12.2844C12.2168 12.2844 11.6378 11.7054 11.6378 10.9913C11.6378 10.2771 12.2168 9.69818 12.9309 9.69818C13.6451 9.69818 14.224 10.2771 14.224 10.9913Z" fill="white"/>
<path d="M18.1033 10.9913C18.1033 11.7054 17.5243 12.2844 16.8102 12.2844C16.096 12.2844 15.5171 11.7054 15.5171 10.9913C15.5171 10.2771 16.096 9.69818 16.8102 9.69818C17.5243 9.69818 18.1033 10.2771 18.1033 10.9913Z" fill="white"/>
<path d="M21.9825 1.29309C21.9825 2.00724 21.4036 2.58618 20.6894 2.58618C19.9753 2.58618 19.3964 2.00724 19.3964 1.29309C19.3964 0.578936 19.9753 0 20.6894 0C21.4036 0 21.9825 0.578936 21.9825 1.29309Z" fill="white"/>
<path d="M25.8618 1.29309C25.8618 2.00724 25.2829 2.58618 24.5687 2.58618C23.8546 2.58618 23.2756 2.00724 23.2756 1.29309C23.2756 0.578936 23.8546 0 24.5687 0C25.2829 0 25.8618 0.578936 25.8618 1.29309Z" fill="white"/>
<path d="M21.9825 20.6894C21.9825 21.4036 21.4036 21.9825 20.6894 21.9825C19.9753 21.9825 19.3964 21.4036 19.3964 20.6894C19.3964 19.9753 19.9753 19.3964 20.6894 19.3964C21.4036 19.3964 21.9825 19.9753 21.9825 20.6894Z" fill="white"/>
<path d="M25.8618 20.6894C25.8618 21.4036 25.2829 21.9825 24.5687 21.9825C23.8546 21.9825 23.2756 21.4036 23.2756 20.6894C23.2756 19.9753 23.8546 19.3964 24.5687 19.3964C25.2829 19.3964 25.8618 19.9753 25.8618 20.6894Z" fill="white"/>
<path d="M21.9825 10.9913C21.9825 11.7054 21.4036 12.2844 20.6894 12.2844C19.9753 12.2844 19.3964 11.7054 19.3964 10.9913C19.3964 10.2771 19.9753 9.69818 20.6894 9.69818C21.4036 9.69818 21.9825 10.2771 21.9825 10.9913Z" fill="white"/>
<path d="M25.8618 10.9913C25.8618 11.7054 25.2829 12.2844 24.5687 12.2844C23.8546 12.2844 23.2756 11.7054 23.2756 10.9913C23.2756 10.2771 23.8546 9.69818 24.5687 9.69818C25.2829 9.69818 25.8618 10.2771 25.8618 10.9913Z" fill="white"/>
<path d="M29.7411 1.29309C29.7411 2.00724 29.1621 2.58618 28.448 2.58618C27.7338 2.58618 27.1549 2.00724 27.1549 1.29309C27.1549 0.578936 27.7338 0 28.448 0C29.1621 0 29.7411 0.578936 29.7411 1.29309Z" fill="white"/>
<path d="M29.7411 20.6894C29.7411 21.4036 29.1621 21.9825 28.448 21.9825C27.7338 21.9825 27.1549 21.4036 27.1549 20.6894C27.1549 19.9753 27.7338 19.3964 28.448 19.3964C29.1621 19.3964 29.7411 19.9753 29.7411 20.6894Z" fill="white"/>
<path d="M29.7411 10.9913C29.7411 11.7054 29.1621 12.2844 28.448 12.2844C27.7338 12.2844 27.1549 11.7054 27.1549 10.9913C27.1549 10.2771 27.7338 9.69818 28.448 9.69818C29.1621 9.69818 29.7411 10.2771 29.7411 10.9913Z" fill="white"/>
<path d="M6.46545 10.9913C6.46545 11.7054 5.88652 12.2844 5.17236 12.2844C4.45821 12.2844 3.87927 11.7054 3.87927 10.9913C3.87927 10.2771 4.45821 9.69818 5.17236 9.69818C5.88652 9.69818 6.46545 10.2771 6.46545 10.9913Z" fill="white"/>
<path d="M2.58618 10.9913C2.58618 11.7054 2.00724 12.2844 1.29309 12.2844C0.578936 12.2844 0 11.7054 0 10.9913C0 10.2771 0.578936 9.69818 1.29309 9.69818C2.00724 9.69818 2.58618 10.2771 2.58618 10.9913Z" fill="white"/>
<path d="M10.3447 10.9913C10.3447 11.7054 9.76579 12.2844 9.05163 12.2844C8.33748 12.2844 7.75854 11.7054 7.75854 10.9913C7.75854 10.2771 8.33748 9.69818 9.05163 9.69818C9.76579 9.69818 10.3447 10.2771 10.3447 10.9913Z" fill="white"/>
</g>
<defs>
<filter id="filter0_i_103_124" x="0" y="0" width="29.7411" height="22.4825" filterUnits="userSpaceOnUse" color-interpolation-filters="sRGB">
<feFlood flood-opacity="0" result="BackgroundImageFix"/>
<feBlend mode="normal" in="SourceGraphic" in2="BackgroundImageFix" result="shape"/>
<feColorMatrix in="SourceAlpha" type="matrix" values="0 0 0 0 0 0 0 0 0 0 0 0 0 0 0 0 0 0 127 0" result="hardAlpha"/>
<feOffset dy="0.5"/>
<feGaussianBlur stdDeviation="0.55"/>
<feComposite in2="hardAlpha" operator="arithmetic" k2="-1" k3="1"/>
<feColorMatrix type="matrix" values="0 0 0 0 0 0 0 0 0 0 0 0 0 0 0 0 0 0 0.5 0"/>
<feBlend mode="normal" in2="shape" result="effect1_innerShadow_103_124"/>
</filter>
</defs>
</svg>
