<svg width="28" height="37" viewBox="0 0 28 37" fill="none" xmlns="http://www.w3.org/2000/svg">
<g filter="url(#filter0_i_103_121)">
<path d="M14.952 22.2885C14.952 22.9766 14.3942 23.5345 13.706 23.5345C13.0179 23.5345 12.46 22.9766 12.46 22.2885C12.46 21.6003 13.0179 21.0425 13.706 21.0425C14.3942 21.0425 14.952 21.6003 14.952 22.2885Z" fill="white"/>
<path d="M14.952 17.9977C14.952 18.6859 14.3942 19.2437 13.706 19.2437C13.0179 19.2437 12.46 18.6859 12.46 17.9977C12.46 17.3096 13.0179 16.7517 13.706 16.7517C14.3942 16.7517 14.952 17.3096 14.952 17.9977Z" fill="white"/>
<path d="M14.952 13.706C14.952 14.3941 14.3942 14.952 13.706 14.952C13.0179 14.952 12.46 14.3941 12.46 13.706C12.46 13.0178 13.0179 12.46 13.706 12.46C14.3942 12.46 14.952 13.0178 14.952 13.706Z" fill="white"/>
<path d="M14.952 9.69108C14.952 10.3792 14.3942 10.9371 13.706 10.9371C13.0179 10.9371 12.46 10.3792 12.46 9.69108C12.46 9.00293 13.0179 8.44508 13.706 8.44508C14.3942 8.44508 14.952 9.00293 14.952 9.69108Z" fill="white"/>
<path d="M14.952 5.39934C14.952 6.08748 14.3942 6.64534 13.706 6.64534C13.0179 6.64534 12.46 6.08748 12.46 5.39934C12.46 4.71119 13.0179 4.15333 13.706 4.15333C14.3942 4.15333 14.952 4.71119 14.952 5.39934Z" fill="white"/>
<path d="M19.1053 5.39934C19.1053 6.08748 18.5475 6.64534 17.8593 6.64534C17.1712 6.64534 16.6133 6.08748 16.6133 5.39934C16.6133 4.71119 17.1712 4.15333 17.8593 4.15333C18.5475 4.15333 19.1053 4.71119 19.1053 5.39934Z" fill="white"/>
<path d="M10.7987 5.39934C10.7987 6.08748 10.2409 6.64534 9.55271 6.64534C8.86456 6.64534 8.30671 6.08748 8.30671 5.39933C8.30671 4.71119 8.86456 4.15333 9.55271 4.15333C10.2409 4.15333 10.7987 4.71119 10.7987 5.39934Z" fill="white"/>
<path d="M14.952 1.246C14.952 1.93415 14.3942 2.492 13.706 2.492C13.0179 2.492 12.46 1.93415 12.46 1.246C12.46 0.557854 13.0179 1.14843e-07 13.706 1.27662e-07C14.3942 1.40481e-07 14.952 0.557854 14.952 1.246Z" fill="white"/>
<path d="M27.412 30.7346C27.412 31.4227 26.8542 31.9806 26.166 31.9806C25.4779 31.9806 24.92 31.4227 24.92 30.7346C24.92 30.0464 25.4779 29.4886 26.166 29.4886C26.8542 29.4886 27.412 30.0464 27.412 30.7346Z" fill="white"/>
<path d="M27.412 26.4418C27.412 27.1299 26.8542 27.6878 26.166 27.6878C25.4779 27.6878 24.92 27.1299 24.92 26.4418C24.92 25.7537 25.4779 25.1958 26.166 25.1958C26.8542 25.1958 27.412 25.7537 27.412 26.4418Z" fill="white"/>
<path d="M27.412 22.1511C27.412 22.8392 26.8542 23.3971 26.166 23.3971C25.4779 23.3971 24.92 22.8392 24.92 22.1511C24.92 21.4629 25.4779 20.9051 26.166 20.9051C26.8542 20.9051 27.412 21.4629 27.412 22.1511Z" fill="white"/>
<path d="M23.2587 13.706C23.2587 14.3941 22.7009 14.952 22.0127 14.952C21.3246 14.952 20.7667 14.3941 20.7667 13.706C20.7667 13.0178 21.3246 12.46 22.0127 12.46C22.7009 12.46 23.2587 13.0178 23.2587 13.706Z" fill="white"/>
<path d="M27.412 17.9967C27.412 18.6849 26.8542 19.2427 26.166 19.2427C25.4779 19.2427 24.92 18.6849 24.92 17.9967C24.92 17.3086 25.4779 16.7507 26.166 16.7507C26.8542 16.7507 27.412 17.3086 27.412 17.9967Z" fill="white"/>
<path d="M6.64534 13.706C6.64534 14.3941 6.08748 14.952 5.39933 14.952C4.71119 14.952 4.15333 14.3941 4.15333 13.706C4.15333 13.0178 4.71119 12.46 5.39933 12.46C6.08748 12.46 6.64534 13.0178 6.64534 13.706Z" fill="white"/>
<path d="M2.492 17.9967C2.492 18.6849 1.93415 19.2427 1.246 19.2427C0.557854 19.2427 -6.18017e-08 18.6849 -4.89825e-08 17.9967C-3.61633e-08 17.3086 0.557854 16.7507 1.246 16.7507C1.93415 16.7507 2.492 17.3086 2.492 17.9967Z" fill="white"/>
<path d="M2.492 26.4418C2.492 27.1299 1.93415 27.6878 1.246 27.6878C0.557854 27.6878 -2.19122e-07 27.1299 -2.06303e-07 26.4418C-1.93483e-07 25.7537 0.557854 25.1958 1.246 25.1958C1.93415 25.1958 2.492 25.7537 2.492 26.4418Z" fill="white"/>
<path d="M2.492 30.7346C2.492 31.4227 1.93415 31.9806 1.246 31.9806C0.557854 31.9806 -2.9909e-07 31.4227 -2.86271e-07 30.7346C-2.73452e-07 30.0464 0.557854 29.4886 1.246 29.4886C1.93415 29.4886 2.492 30.0464 2.492 30.7346Z" fill="white"/>
<path d="M14.952 34.8879C14.952 35.5761 14.3942 36.1339 13.706 36.1339C13.0179 36.1339 12.46 35.5761 12.46 34.8879C12.46 34.1998 13.0179 33.6419 13.706 33.6419C14.3942 33.6419 14.952 34.1998 14.952 34.8879Z" fill="white"/>
<path d="M10.7987 34.8879C10.7987 35.5761 10.2409 36.1339 9.55271 36.1339C8.86456 36.1339 8.30671 35.5761 8.30671 34.8879C8.30671 34.1998 8.86456 33.6419 9.55271 33.6419C10.2409 33.6419 10.7987 34.1998 10.7987 34.8879Z" fill="white"/>
<path d="M19.1053 34.8889C19.1053 35.5771 18.5475 36.1349 17.8593 36.1349C17.1712 36.1349 16.6133 35.5771 16.6133 34.8889C16.6133 34.2008 17.1712 33.6429 17.8593 33.6429C18.5475 33.6429 19.1053 34.2008 19.1053 34.8889Z" fill="white"/>
<path d="M23.2587 34.889C23.2587 35.5771 22.7009 36.135 22.0127 36.135C21.3246 36.135 20.7667 35.5771 20.7667 34.889C20.7667 34.2008 21.3246 33.643 22.0127 33.643C22.7009 33.643 23.2587 34.2008 23.2587 34.889Z" fill="white"/>
<path d="M6.64533 34.8889C6.64533 35.5771 6.08748 36.1349 5.39933 36.1349C4.71119 36.1349 4.15333 35.5771 4.15333 34.8889C4.15333 34.2008 4.71119 33.6429 5.39933 33.6429C6.08748 33.6429 6.64533 34.2008 6.64533 34.8889Z" fill="white"/>
<path d="M2.492 22.1511C2.492 22.8392 1.93415 23.3971 1.246 23.3971C0.557854 23.3971 -1.39191e-07 22.8392 -1.26372e-07 22.1511C-1.13553e-07 21.4629 0.557854 20.9051 1.246 20.9051C1.93415 20.9051 2.492 21.4629 2.492 22.1511Z" fill="white"/>
</g>
<defs>
<filter id="filter0_i_103_121" x="0" y="0" width="27.412" height="36.6349" filterUnits="userSpaceOnUse" color-interpolation-filters="sRGB">
<feFlood flood-opacity="0" result="BackgroundImageFix"/>
<feBlend mode="normal" in="SourceGraphic" in2="BackgroundImageFix" result="shape"/>
<feColorMatrix in="SourceAlpha" type="matrix" values="0 0 0 0 0 0 0 0 0 0 0 0 0 0 0 0 0 0 127 0" result="hardAlpha"/>
<feOffset dy="0.5"/>
<feGaussianBlur stdDeviation="0.55"/>
<feComposite in2="hardAlpha" operator="arithmetic" k2="-1" k3="1"/>
<feColorMatrix type="matrix" values="0 0 0 0 0 0 0 0 0 0 0 0 0 0 0 0 0 0 0.5 0"/>
<feBlend mode="normal" in2="shape" result="effect1_innerShadow_103_121"/>
</filter>
</defs>
</svg>
