<svg width="113" height="44" viewBox="0 0 113 44" fill="none" xmlns="http://www.w3.org/2000/svg">
<g filter="url(#filter0_di_1_66)">
<path d="M19.6416 6.03809C21.135 6.03809 22.333 7.23604 22.333 8.72949C22.333 8.84606 22.3254 8.9618 22.3125 9.07617C22.4272 9.06323 22.5433 9.05666 22.6602 9.05664C24.1536 9.05664 25.3516 10.2546 25.3516 11.748C25.3515 12.2345 25.2221 12.6885 24.999 13.0811C25.9439 13.5011 26.6035 14.4462 26.6035 15.5469C26.6034 17.0374 25.3949 18.2461 23.9043 18.2461C23.1252 18.246 22.4252 17.9137 21.9326 17.3857H7.2041C7.22414 17.5161 7.23828 17.6498 7.23828 17.7861C7.23826 17.9027 7.23064 18.0184 7.21777 18.1328C7.33243 18.1199 7.44856 18.1133 7.56543 18.1133C8.1313 18.1133 8.65177 18.2985 9.0752 18.5742C9.49862 18.2984 10.0191 18.1133 10.585 18.1133C11.1507 18.1133 11.6704 18.2986 12.0938 18.5742C12.5172 18.2984 13.0376 18.1134 13.6035 18.1133C14.1697 18.1133 14.6897 18.2992 15.1133 18.5752C15.5368 18.2993 16.057 18.1133 16.623 18.1133C17.1887 18.1134 17.7085 18.2986 18.1318 18.5742C18.5553 18.2984 19.0757 18.1133 19.6416 18.1133C21.135 18.1133 22.333 19.3113 22.333 20.8047C22.333 20.9212 22.3254 21.037 22.3125 21.1514C22.4271 21.1384 22.5433 21.1328 22.6602 21.1328C24.1535 21.1328 25.3513 22.33 25.3516 23.8232C25.3515 24.3893 25.1656 24.9095 24.8896 25.333C25.1657 25.7566 25.3516 26.2766 25.3516 26.8428C25.3513 28.336 24.1535 29.5342 22.6602 29.5342C22.5499 29.5342 22.4404 29.5271 22.332 29.5156L22.3145 29.5332C22.3259 29.6415 22.333 29.7511 22.333 29.8613C22.3329 31.3547 21.135 32.5527 19.6416 32.5527C19.5936 32.5527 19.5457 32.5499 19.498 32.5479L19.3096 32.7598C19.311 32.7998 19.3135 32.8406 19.3135 32.8809C19.3131 34.3739 18.1161 35.5711 16.623 35.5713C16.0569 35.5713 15.5368 35.3854 15.1133 35.1094C14.6897 35.3854 14.1697 35.5713 13.6035 35.5713C13.0375 35.5712 12.5172 35.3863 12.0938 35.1104C11.6704 35.386 11.1507 35.5713 10.585 35.5713C10.0189 35.5713 9.49867 35.3862 9.0752 35.1104C8.65175 35.3861 8.13134 35.5713 7.56543 35.5713C6.07248 35.571 4.87533 34.3738 4.875 32.8809C4.875 32.7638 4.8806 32.647 4.89355 32.5322C4.77919 32.5451 4.66344 32.5527 4.54688 32.5527C3.05361 32.5526 1.85559 31.3546 1.85547 29.8613C1.85551 29.2712 2.04484 28.7283 2.36328 28.2861C1.54965 27.8213 1.00008 26.9465 1 25.9424C1.00023 24.4519 2.20875 23.2442 3.69922 23.2441C5.01879 23.2442 6.11586 24.1909 6.35059 25.4424H20.3633C20.385 25.4055 20.4066 25.3685 20.4297 25.333C20.154 24.9097 19.9698 24.389 19.9697 23.8232C19.9697 23.7064 19.9754 23.5902 19.9883 23.4756C19.8739 23.4884 19.7582 23.4961 19.6416 23.4961C19.0754 23.4961 18.5554 23.3102 18.1318 23.0342C17.7085 23.3099 17.1888 23.496 16.623 23.4961C16.0568 23.4961 15.5368 23.3093 15.1133 23.0332C14.6897 23.3093 14.1698 23.4961 13.6035 23.4961C13.0374 23.496 12.5173 23.3102 12.0938 23.0342C11.6704 23.3099 11.1508 23.4961 10.585 23.4961C10.0188 23.4961 9.49871 23.3101 9.0752 23.0342C8.65171 23.31 8.13143 23.4961 7.56543 23.4961C6.07234 23.4958 4.87512 22.2978 4.875 20.8047C4.875 20.6878 4.88064 20.5717 4.89355 20.457C4.77921 20.4699 4.66342 20.4766 4.54688 20.4766C3.05372 20.4764 1.85576 19.2792 1.85547 17.7861C1.85547 17.2201 2.04154 16.6999 2.31738 16.2764C2.04148 15.8529 1.85552 15.3326 1.85547 14.7666C1.85562 13.2734 3.05363 12.0763 4.54688 12.0762C4.6634 12.0762 4.77923 12.0819 4.89355 12.0947C4.88071 11.9804 4.87501 11.8646 4.875 11.748C4.875 10.2548 6.07227 9.05697 7.56543 9.05664C7.68217 9.05664 7.79855 9.06328 7.91309 9.07617C7.90022 8.96183 7.89358 8.84603 7.89355 8.72949C7.89355 7.2361 9.09159 6.03818 10.585 6.03809C11.1508 6.03812 11.6704 6.22332 12.0938 6.49902C12.5172 6.22309 13.0375 6.03817 13.6035 6.03809C14.1696 6.03809 14.6898 6.22315 15.1133 6.49902C15.5367 6.22321 16.0571 6.03813 16.623 6.03809C17.1888 6.03817 17.7085 6.2233 18.1318 6.49902C18.5553 6.22311 19.0755 6.03813 19.6416 6.03809ZM43.2393 6.03809C44.7325 6.03834 45.9297 7.2362 45.9297 8.72949C45.9297 8.84604 45.923 8.96182 45.9102 9.07617C46.0248 9.06325 46.141 9.05665 46.2578 9.05664C47.7512 9.0567 48.9492 10.2546 48.9492 11.748C48.9492 12.3139 48.763 12.8335 48.4873 13.2568C48.7633 13.6804 48.9492 14.2004 48.9492 14.7666C48.9492 14.8834 48.9416 14.9997 48.9287 15.1143C49.0434 15.1013 49.1595 15.0947 49.2764 15.0947C50.7698 15.0947 51.9678 16.2927 51.9678 17.7861C51.9677 18.352 51.7817 18.8715 51.5059 19.2949C51.7819 19.7185 51.9678 20.2384 51.9678 20.8047C51.9677 21.3706 51.7816 21.8901 51.5059 22.3135C51.7819 22.737 51.9677 23.257 51.9678 23.8232C51.9677 25.3166 50.7697 26.5146 49.2764 26.5146C49.1595 26.5146 49.0434 26.5081 48.9287 26.4951C48.9416 26.6098 48.9492 26.7259 48.9492 26.8428C48.9491 27.4086 48.763 27.9282 48.4873 28.3516C48.7633 28.7751 48.9492 29.2952 48.9492 29.8613C48.9491 31.3546 47.7511 32.5527 46.2578 32.5527C46.1409 32.5527 46.0248 32.5452 45.9102 32.5322C45.9231 32.6471 45.9297 32.7638 45.9297 32.8809C45.9294 34.3739 44.7323 35.571 43.2393 35.5713C42.673 35.5713 42.1521 35.3864 41.7285 35.1104C41.3052 35.3859 40.7854 35.5713 40.2197 35.5713C39.6537 35.5712 39.1334 35.3863 38.71 35.1104C38.2866 35.386 37.7669 35.5712 37.2012 35.5713C35.708 35.5712 34.5101 34.374 34.5098 32.8809C34.5098 32.7638 34.5163 32.6471 34.5293 32.5322C34.4147 32.5451 34.2984 32.5527 34.1816 32.5527C32.6885 32.5525 31.4913 31.3545 31.4912 29.8613C31.4913 29.2955 31.6754 28.775 31.9512 28.3516C31.6756 27.9283 31.4913 27.4083 31.4912 26.8428C31.4912 26.726 31.4969 26.6097 31.5098 26.4951C31.3954 26.508 31.2796 26.5146 31.1631 26.5146C29.6698 26.5146 28.4718 25.3165 28.4717 23.8232C28.4718 23.2573 28.6568 22.7369 28.9326 22.3135C28.657 21.8902 28.4717 21.3703 28.4717 20.8047C28.4717 20.2388 28.6568 19.7184 28.9326 19.2949C28.657 18.8716 28.4718 18.3518 28.4717 17.7861C28.4717 16.2927 29.6697 15.0948 31.1631 15.0947C31.2797 15.0947 31.3954 15.1014 31.5098 15.1143C31.4969 14.9997 31.4912 14.8834 31.4912 14.7666C31.4913 14.2008 31.6754 13.6802 31.9512 13.2568C31.6756 12.8336 31.4913 12.3136 31.4912 11.748C31.4912 10.2548 32.6884 9.05692 34.1816 9.05664C34.2984 9.05664 34.4147 9.06328 34.5293 9.07617C34.5164 8.96183 34.5098 8.84604 34.5098 8.72949C34.5098 7.2361 35.7078 6.03818 37.2012 6.03809C37.767 6.03814 38.2866 6.22332 38.71 6.49902C39.1334 6.2231 39.6537 6.03815 40.2197 6.03809C40.7855 6.03809 41.3051 6.22337 41.7285 6.49902C42.1521 6.22299 42.673 6.03813 43.2393 6.03809ZM72.874 6.03809C74.3674 6.0382 75.5654 7.23611 75.5654 8.72949C75.5654 8.84605 75.5578 8.96181 75.5449 9.07617C75.6596 9.06324 75.7757 9.05665 75.8926 9.05664C77.386 9.05664 78.584 10.2546 78.584 11.748C78.5839 12.3139 78.3978 12.8334 78.1221 13.2568C78.3981 13.6804 78.5839 14.2004 78.584 14.7666C78.5839 16.26 77.3859 17.458 75.8926 17.458C75.3894 17.4579 74.9211 17.3195 74.5195 17.082H65.1895C64.7881 17.3192 64.3202 17.4579 63.8174 17.458C63.7003 17.458 63.5837 17.4505 63.4688 17.4375C63.4817 17.5524 63.4893 17.669 63.4893 17.7861C63.489 19.2793 62.2911 20.4766 60.7979 20.4766C60.681 20.4765 60.5649 20.47 60.4502 20.457C60.4631 20.5717 60.4707 20.6878 60.4707 20.8047C60.4707 21.3705 60.2845 21.8901 60.0088 22.3135C60.2848 22.737 60.4706 23.2571 60.4707 23.8232C60.4707 24.3892 60.2846 24.9096 60.0088 25.333C60.2847 25.7565 60.4707 26.2767 60.4707 26.8428C60.4706 27.4086 60.2845 27.9282 60.0088 28.3516C60.2848 28.7751 60.4707 29.2952 60.4707 29.8613C60.4707 30.4271 60.2845 30.9468 60.0088 31.3701C60.2849 31.7937 60.4707 32.3145 60.4707 32.8809C60.4704 34.374 59.2725 35.5712 57.7793 35.5713C56.2861 35.5712 55.0882 34.374 55.0879 32.8809C55.0879 32.3147 55.2729 31.7937 55.5488 31.3701C55.2733 30.9468 55.0879 30.4269 55.0879 29.8613C55.0879 29.2954 55.273 28.775 55.5488 28.3516C55.2732 27.9283 55.088 27.4084 55.0879 26.8428C55.0879 26.2769 55.2731 25.7564 55.5488 25.333C55.2731 24.9096 55.0879 24.3891 55.0879 23.8232C55.088 23.2573 55.273 22.7369 55.5488 22.3135C55.2732 21.8902 55.0879 21.3703 55.0879 20.8047C55.0879 20.2387 55.273 19.7184 55.5488 19.2949C55.2732 18.8716 55.088 18.3518 55.0879 17.7861C55.0879 17.2203 55.2731 16.6998 55.5488 16.2764C55.2731 15.853 55.0879 15.3325 55.0879 14.7666C55.088 14.2007 55.273 13.6803 55.5488 13.2568C55.2732 12.8335 55.088 12.3137 55.0879 11.748C55.0879 11.1821 55.2731 10.6617 55.5488 10.2383C55.2732 9.81501 55.088 9.29512 55.0879 8.72949C55.0879 7.2361 56.2859 6.03818 57.7793 6.03809C59.2727 6.03816 60.4707 7.23608 60.4707 8.72949C60.4706 9.29527 60.2845 9.81495 60.0088 10.2383C60.2847 10.6618 60.4707 11.1819 60.4707 11.748C60.4706 12.3139 60.2845 12.8335 60.0088 13.2568C60.2848 13.6804 60.4706 14.2005 60.4707 14.7666C60.4707 14.8834 60.4631 14.9997 60.4502 15.1143C60.5649 15.1013 60.681 15.0947 60.7979 15.0947C60.9147 15.0947 61.0309 15.1014 61.1455 15.1143C61.1326 14.9997 61.126 14.8834 61.126 14.7666C61.1261 13.2733 62.3241 12.0763 63.8174 12.0762C63.9339 12.0762 64.0497 12.0819 64.1641 12.0947C64.1512 11.9804 64.1445 11.8646 64.1445 11.748C64.1445 10.2547 65.3426 9.05674 66.8359 9.05664C66.9525 9.05664 67.0683 9.06333 67.1826 9.07617C67.1698 8.96185 67.1641 8.84601 67.1641 8.72949C67.1641 7.23623 68.3613 6.03839 69.8545 6.03809C70.4205 6.03809 70.9408 6.22319 71.3643 6.49902C71.7877 6.22316 72.308 6.03813 72.874 6.03809ZM93.4521 9.05664C94.9456 9.05669 96.1436 10.2546 96.1436 11.748C96.1435 12.3139 95.9574 12.8335 95.6816 13.2568C95.9576 13.6804 96.1435 14.2004 96.1436 14.7666C96.1435 15.3328 95.9567 15.8528 95.6807 16.2764C95.9567 16.7 96.1436 17.2199 96.1436 17.7861C96.1434 18.3519 95.9574 18.8716 95.6816 19.2949C95.9576 19.7185 96.1435 20.2385 96.1436 20.8047C96.1435 21.3705 95.9574 21.8901 95.6816 22.3135C95.9577 22.737 96.1435 23.2571 96.1436 23.8232C96.1435 24.3892 95.9575 24.9096 95.6816 25.333C95.9576 25.7565 96.1436 26.2766 96.1436 26.8428C96.1435 27.4086 95.9574 27.9282 95.6816 28.3516C95.9576 28.7751 96.1435 29.2952 96.1436 29.8613C96.1435 29.9782 96.136 30.0944 96.123 30.209C96.2377 30.196 96.3538 30.1895 96.4707 30.1895C97.0367 30.1895 97.557 30.3745 97.9805 30.6504C98.4039 30.3746 98.9243 30.1895 99.4902 30.1895C100.056 30.1895 100.576 30.3747 100.999 30.6504C101.423 30.3745 101.943 30.1895 102.509 30.1895C104.002 30.1895 105.2 31.3874 105.2 32.8809C105.2 34.374 104.002 35.5713 102.509 35.5713C101.943 35.5712 101.423 35.3863 100.999 35.1104C100.576 35.386 100.056 35.5712 99.4902 35.5713C98.9241 35.5713 98.404 35.3854 97.9805 35.1094C97.5569 35.3853 97.0369 35.5713 96.4707 35.5713C95.9046 35.5712 95.3844 35.3863 94.9609 35.1104C94.5376 35.386 94.0179 35.5713 93.4521 35.5713C92.8861 35.5713 92.3659 35.3863 91.9424 35.1104C91.5191 35.386 90.9993 35.5712 90.4336 35.5713C89.8674 35.5713 89.3464 35.3864 88.9229 35.1104C88.4995 35.3859 87.9798 35.5713 87.4141 35.5713C86.848 35.5712 86.3278 35.3863 85.9043 35.1104C85.4809 35.386 84.9612 35.5712 84.3955 35.5713C82.9023 35.5712 81.7044 34.374 81.7041 32.8809C81.7041 31.3875 82.9021 30.1895 84.3955 30.1895C84.9613 30.1895 85.4809 30.3747 85.9043 30.6504C86.3278 30.3745 86.848 30.1895 87.4141 30.1895C87.9798 30.1895 88.4995 30.3748 88.9229 30.6504C89.3464 30.3744 89.8674 30.1895 90.4336 30.1895C90.5502 30.1895 90.6659 30.1961 90.7803 30.209C90.7674 30.0944 90.7607 29.9781 90.7607 29.8613C90.7608 29.2954 90.9459 28.775 91.2217 28.3516C90.9461 27.9283 90.7608 27.4084 90.7607 26.8428C90.7607 26.2769 90.9459 25.7564 91.2217 25.333C90.9459 24.9096 90.7608 24.3891 90.7607 23.8232C90.7608 23.2573 90.9458 22.7369 91.2217 22.3135C90.9461 21.8902 90.7608 21.3703 90.7607 20.8047C90.7607 20.2388 90.9459 19.7184 91.2217 19.2949C90.9461 18.8716 90.7609 18.3518 90.7607 17.7861C90.7607 17.6546 90.7743 17.5254 90.793 17.3994H84.7314C84.2587 17.8068 83.6447 18.0557 82.9717 18.0557C81.4813 18.0556 80.2728 16.8468 80.2725 15.3564C80.2725 14.2297 80.9635 13.2646 81.9443 12.8604C81.7915 12.5216 81.7041 12.1457 81.7041 11.748C81.7041 10.2547 82.9021 9.05674 84.3955 9.05664C84.9612 9.05669 85.4809 9.24193 85.9043 9.51758C86.3277 9.24172 86.8481 9.05671 87.4141 9.05664C87.9798 9.05664 88.4995 9.24199 88.9229 9.51758C89.3464 9.2416 89.8675 9.05668 90.4336 9.05664C90.9993 9.05674 91.5191 9.24191 91.9424 9.51758C92.3658 9.24175 92.8862 9.05668 93.4521 9.05664ZM93.4521 0C94.9456 4.48686e-05 96.1436 1.19798 96.1436 2.69141C96.1433 4.18461 94.9454 5.38179 93.4521 5.38184C92.8861 5.3818 92.3659 5.19683 91.9424 4.9209C91.5191 5.19659 90.9993 5.38174 90.4336 5.38184C88.9404 5.38174 87.7424 4.18458 87.7422 2.69141C87.7422 1.19801 88.9402 9.61358e-05 90.4336 0C90.9995 0.000100712 91.519 0.186063 91.9424 0.461914C92.3659 0.185899 92.886 3.93373e-05 93.4521 0Z" fill="url(#paint0_linear_1_66)"/>
</g>
<defs>
<filter id="filter0_di_1_66" x="0" y="-1" width="112.2" height="44.5713" filterUnits="userSpaceOnUse" color-interpolation-filters="sRGB">
<feFlood flood-opacity="0" result="BackgroundImageFix"/>
<feColorMatrix in="SourceAlpha" type="matrix" values="0 0 0 0 0 0 0 0 0 0 0 0 0 0 0 0 0 0 127 0" result="hardAlpha"/>
<feOffset dx="3" dy="4"/>
<feGaussianBlur stdDeviation="2"/>
<feComposite in2="hardAlpha" operator="out"/>
<feColorMatrix type="matrix" values="0 0 0 0 0 0 0 0 0 0 0 0 0 0 0 0 0 0 0.1 0"/>
<feBlend mode="normal" in2="BackgroundImageFix" result="effect1_dropShadow_1_66"/>
<feBlend mode="normal" in="SourceGraphic" in2="effect1_dropShadow_1_66" result="shape"/>
<feColorMatrix in="SourceAlpha" type="matrix" values="0 0 0 0 0 0 0 0 0 0 0 0 0 0 0 0 0 0 127 0" result="hardAlpha"/>
<feOffset dy="-1"/>
<feGaussianBlur stdDeviation="1"/>
<feComposite in2="hardAlpha" operator="arithmetic" k2="-1" k3="1"/>
<feColorMatrix type="matrix" values="0 0 0 0 0 0 0 0 0 0 0 0 0 0 0 0 0 0 0.25 0"/>
<feBlend mode="normal" in2="shape" result="effect2_innerShadow_1_66"/>
</filter>
<linearGradient id="paint0_linear_1_66" x1="53.1001" y1="0" x2="53.1001" y2="35.5713" gradientUnits="userSpaceOnUse">
<stop stop-color="#F7C9FF"/>
<stop offset="1" stop-color="#F8F8F8"/>
</linearGradient>
</defs>
</svg>
