<svg width="29" height="29" viewBox="0 0 29 29" fill="none" xmlns="http://www.w3.org/2000/svg">
<g filter="url(#filter0_i_103_120)">
<path d="M11.2246 23.3114C11.2246 24.0267 10.6447 24.6065 9.92941 24.6065C9.21413 24.6065 8.63427 24.0267 8.63427 23.3114C8.63427 22.5961 9.21413 22.0162 9.92941 22.0162C10.6447 22.0162 11.2246 22.5961 11.2246 23.3114Z" fill="white"/>
<path d="M15.5417 14.5332C15.5417 15.2485 14.9618 15.8283 14.2465 15.8283C13.5313 15.8283 12.9514 15.2485 12.9514 14.5332C12.9514 13.8179 13.5313 13.238 14.2465 13.238C14.9618 13.238 15.5417 13.8179 15.5417 14.5332Z" fill="white"/>
<path d="M15.5417 5.61228C15.5417 6.32756 14.9618 6.90742 14.2465 6.90742C13.5313 6.90742 12.9514 6.32756 12.9514 5.61228C12.9514 4.89699 13.5313 4.31714 14.2465 4.31714C14.9618 4.31714 15.5417 4.89699 15.5417 5.61228Z" fill="white"/>
<path d="M19.8588 18.8503C19.8588 19.5656 19.279 20.1455 18.5637 20.1455C17.8484 20.1455 17.2685 19.5656 17.2685 18.8503C17.2685 18.135 17.8484 17.5552 18.5637 17.5552C19.279 17.5552 19.8588 18.135 19.8588 18.8503Z" fill="white"/>
<path d="M24.176 23.3124C24.176 24.0277 23.5961 24.6075 22.8808 24.6075C22.1655 24.6075 21.5857 24.0277 21.5857 23.3124C21.5857 22.5971 22.1655 22.0173 22.8808 22.0173C23.5961 22.0173 24.176 22.5971 24.176 23.3124Z" fill="white"/>
<path d="M28.4931 27.198C28.4931 27.9133 27.9132 28.4931 27.198 28.4931C26.4827 28.4931 25.9028 27.9133 25.9028 27.198C25.9028 26.4827 26.4827 25.9029 27.198 25.9029C27.9132 25.9029 28.4931 26.4827 28.4931 27.198Z" fill="white"/>
<path d="M19.8588 10.0722C19.8588 10.7875 19.279 11.3674 18.5637 11.3674C17.8484 11.3674 17.2685 10.7875 17.2685 10.0722C17.2685 9.35693 17.8484 8.77707 18.5637 8.77707C19.279 8.77707 19.8588 9.35693 19.8588 10.0722Z" fill="white"/>
<path d="M19.8588 5.61228C19.8588 6.32756 19.279 6.90742 18.5637 6.90742C17.8484 6.90742 17.2685 6.32756 17.2685 5.61228C17.2685 4.89699 17.8484 4.31714 18.5637 4.31714C19.279 4.31714 19.8588 4.89699 19.8588 5.61228Z" fill="white"/>
<path d="M24.176 5.61228C24.176 6.32756 23.5961 6.90742 22.8808 6.90742C22.1655 6.90742 21.5857 6.32756 21.5857 5.61228C21.5857 4.89699 22.1655 4.31714 22.8808 4.31714C23.5961 4.31714 24.176 4.89699 24.176 5.61228Z" fill="white"/>
<path d="M6.90742 5.61228C6.90742 6.32756 6.32756 6.90742 5.61228 6.90742C4.89699 6.90742 4.31714 6.32756 4.31714 5.61228C4.31714 4.89699 4.89699 4.31714 5.61228 4.31714C6.32756 4.31714 6.90742 4.89699 6.90742 5.61228Z" fill="white"/>
<path d="M2.59029 1.29514C2.59029 2.01043 2.01044 2.59028 1.29515 2.59028C0.579865 2.59028 1.09243e-05 2.01043 1.09377e-05 1.29514C1.0951e-05 0.579855 0.579865 6.94797e-07 1.29515 7.08122e-07C2.01044 7.21446e-07 2.59029 0.579855 2.59029 1.29514Z" fill="white"/>
<path d="M2.59028 14.3904C2.59028 15.1057 2.01043 15.6855 1.29514 15.6855C0.579854 15.6855 -1.47361e-07 15.1057 -1.34036e-07 14.3904C-1.20712e-07 13.6751 0.579854 13.0952 1.29514 13.0952C2.01043 13.0952 2.59028 13.6751 2.59028 14.3904Z" fill="white"/>
<path d="M11.2246 10.0722C11.2246 10.7875 10.6447 11.3674 9.92941 11.3674C9.21413 11.3674 8.63427 10.7875 8.63427 10.0722C8.63427 9.35693 9.21413 8.77708 9.92941 8.77708C10.6447 8.77708 11.2246 9.35693 11.2246 10.0722Z" fill="white"/>
<path d="M19.8588 1.29514C19.8588 2.01043 19.279 2.59028 18.5637 2.59028C17.8484 2.59028 17.2685 2.01043 17.2685 1.29514C17.2685 0.579855 17.8484 1.59583e-07 18.5637 1.72908e-07C19.279 1.86233e-07 19.8588 0.579855 19.8588 1.29514Z" fill="white"/>
</g>
<defs>
<filter id="filter0_i_103_120" x="0" y="0" width="28.4931" height="28.9932" filterUnits="userSpaceOnUse" color-interpolation-filters="sRGB">
<feFlood flood-opacity="0" result="BackgroundImageFix"/>
<feBlend mode="normal" in="SourceGraphic" in2="BackgroundImageFix" result="shape"/>
<feColorMatrix in="SourceAlpha" type="matrix" values="0 0 0 0 0 0 0 0 0 0 0 0 0 0 0 0 0 0 127 0" result="hardAlpha"/>
<feOffset dy="0.5"/>
<feGaussianBlur stdDeviation="0.55"/>
<feComposite in2="hardAlpha" operator="arithmetic" k2="-1" k3="1"/>
<feColorMatrix type="matrix" values="0 0 0 0 0 0 0 0 0 0 0 0 0 0 0 0 0 0 0.5 0"/>
<feBlend mode="normal" in2="shape" result="effect1_innerShadow_103_120"/>
</filter>
</defs>
</svg>
