<svg width="21" height="20" viewBox="0 0 21 20" fill="none" xmlns="http://www.w3.org/2000/svg">
<path d="M3.59855 6.8525C2.81893 7.77265 2.2384 8.84434 1.89355 10C2.97022 13.615 6.31855 16.25 10.2819 16.25C11.1094 16.25 11.9094 16.135 12.6677 15.9208M5.47189 5.19C6.89909 4.24822 8.57196 3.7474 10.2819 3.75C14.2452 3.75 17.5927 6.385 18.6694 9.99833C18.0794 11.9728 16.8128 13.6763 15.0919 14.81M5.47189 5.19L2.78189 2.5M5.47189 5.19L8.51356 8.23167M15.0919 14.81L17.7819 17.5M15.0919 14.81L12.0502 11.7683C12.2824 11.5362 12.4666 11.2605 12.5922 10.9572C12.7178 10.6539 12.7825 10.3287 12.7825 10.0004C12.7825 9.67208 12.7178 9.34697 12.5922 9.04363C12.4666 8.74029 12.2824 8.46467 12.0502 8.2325C11.8181 8.00033 11.5424 7.81617 11.2391 7.69052C10.9358 7.56487 10.6106 7.5002 10.2823 7.5002C9.95397 7.5002 9.62885 7.56487 9.32552 7.69052C9.02218 7.81617 8.74655 8.00033 8.51439 8.2325M12.0494 11.7675L8.51522 8.23333" stroke="#757575" stroke-width="1.25" stroke-linecap="round" stroke-linejoin="round"/>
</svg>
