<svg width="28" height="32" viewBox="0 0 28 32" fill="none" xmlns="http://www.w3.org/2000/svg">
<path d="M15.0576 13.8028C15.0576 14.4958 14.4958 15.0576 13.8028 15.0576C13.1098 15.0576 12.548 14.4958 12.548 13.8028C12.548 13.1098 13.1098 12.548 13.8028 12.548C14.4958 12.548 15.0576 13.1098 15.0576 13.8028Z" fill="black"/>
<path d="M10.875 13.8028C10.875 14.4958 10.3132 15.0576 9.62015 15.0576C8.92714 15.0576 8.36535 14.4958 8.36535 13.8028C8.36535 13.1098 8.92714 12.548 9.62015 12.548C10.3132 12.548 10.875 13.1098 10.875 13.8028Z" fill="black"/>
<path d="M10.875 9.62015C10.875 10.3132 10.3132 10.875 9.62015 10.875C8.92714 10.875 8.36535 10.3132 8.36535 9.62015C8.36535 8.92715 8.92714 8.36535 9.62015 8.36535C10.3132 8.36535 10.875 8.92715 10.875 9.62015Z" fill="black"/>
<path d="M19.2403 9.62015C19.2403 10.3132 18.6785 10.875 17.9855 10.875C17.2925 10.875 16.7307 10.3132 16.7307 9.62015C16.7307 8.92715 17.2925 8.36535 17.9855 8.36535C18.6785 8.36535 19.2403 8.92715 19.2403 9.62015Z" fill="black"/>
<path d="M10.875 17.9855C10.875 18.6785 10.3132 19.2403 9.62015 19.2403C8.92714 19.2403 8.36535 18.6785 8.36535 17.9855C8.36535 17.2925 8.92714 16.7307 9.62015 16.7307C10.3132 16.7307 10.875 17.2925 10.875 17.9855Z" fill="black"/>
<path d="M19.2403 17.9855C19.2403 18.6785 18.6785 19.2403 17.9855 19.2403C17.2925 19.2403 16.7307 18.6785 16.7307 17.9855C16.7307 17.2925 17.2925 16.7307 17.9855 16.7307C18.6785 16.7307 19.2403 17.2925 19.2403 17.9855Z" fill="black"/>
<path d="M15.0576 17.9855C15.0576 18.6785 14.4958 19.2403 13.8028 19.2403C13.1098 19.2403 12.548 18.6785 12.548 17.9855C12.548 17.2925 13.1098 16.7307 13.8028 16.7307C14.4958 16.7307 15.0576 17.2925 15.0576 17.9855Z" fill="black"/>
<path d="M19.2403 13.8028C19.2403 14.4958 18.6785 15.0576 17.9855 15.0576C17.2925 15.0576 16.7307 14.4958 16.7307 13.8028C16.7307 13.1098 17.2925 12.548 17.9855 12.548C18.6785 12.548 19.2403 13.1098 19.2403 13.8028Z" fill="black"/>
<path d="M23.423 13.8028C23.423 14.4958 22.8612 15.0576 22.1682 15.0576C21.4752 15.0576 20.9134 14.4958 20.9134 13.8028C20.9134 13.1098 21.4752 12.548 22.1682 12.548C22.8612 12.548 23.423 13.1098 23.423 13.8028Z" fill="black"/>
<path d="M27.6057 13.8028C27.6057 14.4958 27.0439 15.0576 26.3508 15.0576C25.6578 15.0576 25.096 14.4958 25.096 13.8028C25.096 13.1098 25.6578 12.548 26.3508 12.548C27.0439 12.548 27.6057 13.1098 27.6057 13.8028Z" fill="black"/>
<path d="M6.69228 13.8028C6.69228 14.4958 6.13049 15.0576 5.43748 15.0576C4.74447 15.0576 4.18267 14.4958 4.18267 13.8028C4.18267 13.1098 4.74447 12.548 5.43748 12.548C6.13049 12.548 6.69228 13.1098 6.69228 13.8028Z" fill="black"/>
<path d="M2.5096 13.8028C2.5096 14.4958 1.94781 15.0576 1.2548 15.0576C0.561794 15.0576 0 14.4958 0 13.8028C0 13.1098 0.561794 12.548 1.2548 12.548C1.94781 12.548 2.5096 13.1098 2.5096 13.8028Z" fill="black"/>
<path d="M15.0576 22.1682C15.0576 22.8612 14.4958 23.423 13.8028 23.423C13.1098 23.423 12.548 22.8612 12.548 22.1682C12.548 21.4752 13.1098 20.9134 13.8028 20.9134C14.4958 20.9134 15.0576 21.4752 15.0576 22.1682Z" fill="black"/>
<path d="M15.0576 26.3509C15.0576 27.0439 14.4958 27.6057 13.8028 27.6057C13.1098 27.6057 12.548 27.0439 12.548 26.3509C12.548 25.6578 13.1098 25.0961 13.8028 25.0961C14.4958 25.0961 15.0576 25.6578 15.0576 26.3509Z" fill="black"/>
<path d="M15.0576 30.5335C15.0576 31.2265 14.4958 31.7883 13.8028 31.7883C13.1098 31.7883 12.548 31.2265 12.548 30.5335C12.548 29.8405 13.1098 29.2787 13.8028 29.2787C14.4958 29.2787 15.0576 29.8405 15.0576 30.5335Z" fill="black"/>
<path d="M15.0576 9.62015C15.0576 10.3132 14.4958 10.875 13.8028 10.875C13.1098 10.875 12.548 10.3132 12.548 9.62015C12.548 8.92715 13.1098 8.36535 13.8028 8.36535C14.4958 8.36535 15.0576 8.92715 15.0576 9.62015Z" fill="black"/>
<path d="M15.0576 5.43748C15.0576 6.13049 14.4958 6.69228 13.8028 6.69228C13.1098 6.69228 12.548 6.13049 12.548 5.43748C12.548 4.74447 13.1098 4.18268 13.8028 4.18268C14.4958 4.18268 15.0576 4.74447 15.0576 5.43748Z" fill="black"/>
<path d="M15.0576 1.2548C15.0576 1.94781 14.4958 2.50961 13.8028 2.50961C13.1098 2.50961 12.548 1.94781 12.548 1.2548C12.548 0.561794 13.1098 0 13.8028 0C14.4958 0 15.0576 0.561794 15.0576 1.2548Z" fill="black"/>
</svg>
