<svg width="32" height="27" viewBox="0 0 32 27" fill="none" xmlns="http://www.w3.org/2000/svg">
<path d="M17.0527 11.0526C17.0527 11.8375 16.4165 12.4737 15.6316 12.4737C14.8468 12.4737 14.2106 11.8375 14.2106 11.0526C14.2106 10.2678 14.8468 9.63158 15.6316 9.63158C16.4165 9.63158 17.0527 10.2678 17.0527 11.0526Z" fill="black"/>
<path d="M21.7896 11.0515C21.7896 11.8363 21.1533 12.4725 20.3685 12.4725C19.5837 12.4725 18.9475 11.8363 18.9475 11.0515C18.9475 10.2667 19.5837 9.63043 20.3685 9.63043C21.1533 9.63043 21.7896 10.2667 21.7896 11.0515Z" fill="black"/>
<path d="M26.5264 11.0515C26.5264 11.8363 25.8902 12.4725 25.1054 12.4725C24.3205 12.4725 23.6843 11.8363 23.6843 11.0515C23.6843 10.2667 24.3205 9.63043 25.1054 9.63043C25.8902 9.63043 26.5264 10.2667 26.5264 11.0515Z" fill="black"/>
<path d="M31.2633 11.0515C31.2633 11.8363 30.6271 12.4725 29.8422 12.4725C29.0574 12.4725 28.4212 11.8363 28.4212 11.0515C28.4212 10.2667 29.0574 9.63043 29.8422 9.63043C30.6271 9.63043 31.2633 10.2667 31.2633 11.0515Z" fill="black"/>
<path d="M7.57898 11.0515C7.57898 11.8363 6.94275 12.4725 6.15792 12.4725C5.37309 12.4725 4.73686 11.8363 4.73686 11.0515C4.73686 10.2667 5.37309 9.63043 6.15792 9.63043C6.94275 9.63043 7.57898 10.2667 7.57898 11.0515Z" fill="black"/>
<path d="M2.84212 11.0515C2.84212 11.8363 2.20589 12.4725 1.42106 12.4725C0.63623 12.4725 0 11.8363 0 11.0515C0 10.2667 0.63623 9.63043 1.42106 9.63043C2.20589 9.63043 2.84212 10.2667 2.84212 11.0515Z" fill="black"/>
<path d="M12.3158 11.0515C12.3158 11.8363 11.6796 12.4725 10.8948 12.4725C10.11 12.4725 9.47373 11.8363 9.47373 11.0515C9.47373 10.2667 10.11 9.63043 10.8948 9.63043C11.6796 9.63043 12.3158 10.2667 12.3158 11.0515Z" fill="black"/>
<path d="M17.0527 6.15908C17.0527 6.94391 16.4165 7.58014 15.6316 7.58014C14.8468 7.58014 14.2106 6.94391 14.2106 6.15908C14.2106 5.37425 14.8468 4.73802 15.6316 4.73802C16.4165 4.73802 17.0527 5.37425 17.0527 6.15908Z" fill="black"/>
<path d="M17.0527 1.42106C17.0527 2.20589 16.4165 2.84212 15.6316 2.84212C14.8468 2.84212 14.2106 2.20589 14.2106 1.42106C14.2106 0.63623 14.8468 0 15.6316 0C16.4165 0 17.0527 0.63623 17.0527 1.42106Z" fill="black"/>
<path d="M21.7896 6.15792C21.7896 6.94275 21.1533 7.57898 20.3685 7.57898C19.5837 7.57898 18.9475 6.94275 18.9475 6.15792C18.9475 5.37309 19.5837 4.73686 20.3685 4.73686C21.1533 4.73686 21.7896 5.37309 21.7896 6.15792Z" fill="black"/>
<path d="M12.3158 6.15792C12.3158 6.94275 11.6796 7.57898 10.8948 7.57898C10.11 7.57898 9.47373 6.94275 9.47373 6.15792C9.47373 5.37309 10.11 4.73686 10.8948 4.73686C11.6796 4.73686 12.3158 5.37309 12.3158 6.15792Z" fill="black"/>
<path d="M17.0527 15.7907C17.0527 16.5755 16.4165 17.2117 15.6316 17.2117C14.8468 17.2117 14.2106 16.5755 14.2106 15.7907C14.2106 15.0058 14.8468 14.3696 15.6316 14.3696C16.4165 14.3696 17.0527 15.0058 17.0527 15.7907Z" fill="black"/>
<path d="M21.7896 15.7895C21.7896 16.5743 21.1533 17.2106 20.3685 17.2106C19.5837 17.2106 18.9475 16.5743 18.9475 15.7895C18.9475 15.0047 19.5837 14.3684 20.3685 14.3684C21.1533 14.3684 21.7896 15.0047 21.7896 15.7895Z" fill="black"/>
<path d="M26.5264 15.7895C26.5264 16.5743 25.8902 17.2106 25.1054 17.2106C24.3205 17.2106 23.6843 16.5743 23.6843 15.7895C23.6843 15.0047 24.3205 14.3684 25.1054 14.3684C25.8902 14.3684 26.5264 15.0047 26.5264 15.7895Z" fill="black"/>
<path d="M7.57898 15.7895C7.57898 16.5743 6.94275 17.2106 6.15792 17.2106C5.37309 17.2106 4.73686 16.5743 4.73686 15.7895C4.73686 15.0047 5.37309 14.3684 6.15792 14.3684C6.94275 14.3684 7.57898 15.0047 7.57898 15.7895Z" fill="black"/>
<path d="M12.3158 15.7895C12.3158 16.5743 11.6796 17.2106 10.8948 17.2106C10.11 17.2106 9.47373 16.5743 9.47373 15.7895C9.47373 15.0047 10.11 14.3684 10.8948 14.3684C11.6796 14.3684 12.3158 15.0047 12.3158 15.7895Z" fill="black"/>
<path d="M7.57898 20.6842C7.57898 21.4691 6.94275 22.1053 6.15792 22.1053C5.37309 22.1053 4.73686 21.4691 4.73686 20.6842C4.73686 19.8994 5.37309 19.2632 6.15792 19.2632C6.94275 19.2632 7.57898 19.8994 7.57898 20.6842Z" fill="black"/>
<path d="M7.57898 25.5789C7.57898 26.3638 6.94275 27 6.15792 27C5.37309 27 4.73686 26.3638 4.73686 25.5789C4.73686 24.7941 5.37309 24.1579 6.15792 24.1579C6.94275 24.1579 7.57898 24.7941 7.57898 25.5789Z" fill="black"/>
<path d="M26.5264 25.5789C26.5264 26.3638 25.8902 27 25.1054 27C24.3205 27 23.6843 26.3638 23.6843 25.5789C23.6843 24.7941 24.3205 24.1579 25.1054 24.1579C25.8902 24.1579 26.5264 24.7941 26.5264 25.5789Z" fill="black"/>
<path d="M2.84212 25.5789C2.84212 26.3638 2.20589 27 1.42106 27C0.63623 27 0 26.3638 0 25.5789C0 24.7941 0.63623 24.1579 1.42106 24.1579C2.20589 24.1579 2.84212 24.7941 2.84212 25.5789Z" fill="black"/>
<path d="M31.2633 25.5789C31.2633 26.3638 30.6271 27 29.8422 27C29.0574 27 28.4212 26.3638 28.4212 25.5789C28.4212 24.7941 29.0574 24.1579 29.8422 24.1579C30.6271 24.1579 31.2633 24.7941 31.2633 25.5789Z" fill="black"/>
<path d="M12.3158 20.6842C12.3158 21.4691 11.6796 22.1053 10.8948 22.1053C10.11 22.1053 9.47373 21.4691 9.47373 20.6842C9.47373 19.8994 10.11 19.2632 10.8948 19.2632C11.6796 19.2632 12.3158 19.8994 12.3158 20.6842Z" fill="black"/>
<path d="M21.7896 20.6842C21.7896 21.4691 21.1533 22.1053 20.3685 22.1053C19.5837 22.1053 18.9475 21.4691 18.9475 20.6842C18.9475 19.8994 19.5837 19.2632 20.3685 19.2632C21.1533 19.2632 21.7896 19.8994 21.7896 20.6842Z" fill="black"/>
<path d="M26.5264 20.6842C26.5264 21.4691 25.8902 22.1053 25.1054 22.1053C24.3205 22.1053 23.6843 21.4691 23.6843 20.6842C23.6843 19.8994 24.3205 19.2632 25.1054 19.2632C25.8902 19.2632 26.5264 19.8994 26.5264 20.6842Z" fill="black"/>
</svg>
